  0
SECTION
  2
HEADER
  9
$ACADVER
  1
AC1032
  9
$ACADMAINTVER
 90
      228
  9
$DWGCODEPAGE
  3
ANSI_1252
  9
$REQUIREDVERSIONS
160
                 0
  9
$INSBASE
 10
0.0
 20
0.0
 30
0.0
  9
$EXTMIN
 10
1.000000000000000E+20
 20
1.000000000000000E+20
 30
1.000000000000000E+20
  9
$EXTMAX
 10
-1.000000000000000E+20
 20
-1.000000000000000E+20
 30
-1.000000000000000E+20
  9
$LIMMIN
 10
0.0
 20
0.0
  9
$LIMMAX
 10
12.0
 20
9.0
  9
$ORTHOMODE
 70
     0
  9
$REGENMODE
 70
     1
  9
$FILLMODE
 70
     1
  9
$QTEXTMODE
 70
     0
  9
$MIRRTEXT
 70
     0
  9
$LTSCALE
 40
1.0
  9
$ATTMODE
 70
     1
  9
$TEXTSIZE
 40
0.2
  9
$TRACEWID
 40
0.05
  9
$TEXTSTYLE
  7
Standard
  9
$CLAYER
  8
0
  9
$CELTYPE
  6
ByLayer
  9
$CECOLOR
 62
   256
  9
$CELTSCALE
 40
1.0
  9
$DISPSILH
 70
     0
  9
$DIMSCALE
 40
1.0
  9
$DIMASZ
 40
0.18
  9
$DIMEXO
 40
0.0625
  9
$DIMDLI
 40
0.38
  9
$DIMRND
 40
0.0
  9
$DIMDLE
 40
0.0
  9
$DIMEXE
 40
0.18
  9
$DIMTP
 40
0.0
  9
$DIMTM
 40
0.0
  9
$DIMTXT
 40
0.18
  9
$DIMCEN
 40
0.09
  9
$DIMTSZ
 40
0.0
  9
$DIMTOL
 70
     0
  9
$DIMLIM
 70
     0
  9
$DIMTIH
 70
     1
  9
$DIMTOH
 70
     1
  9
$DIMSE1
 70
     0
  9
$DIMSE2
 70
     0
  9
$DIMTAD
 70
     0
  9
$DIMZIN
 70
     0
  9
$DIMBLK
  1

  9
$DIMASO
 70
     1
  9
$DIMSHO
 70
     1
  9
$DIMPOST
  1

  9
$DIMAPOST
  1

  9
$DIMALT
 70
     0
  9
$DIMALTD
 70
     2
  9
$DIMALTF
 40
25.4
  9
$DIMLFAC
 40
1.0
  9
$DIMTOFL
 70
     0
  9
$DIMTVP
 40
0.0
  9
$DIMTIX
 70
     0
  9
$DIMSOXD
 70
     0
  9
$DIMSAH
 70
     0
  9
$DIMBLK1
  1

  9
$DIMBLK2
  1

  9
$DIMSTYLE
  2
Standard
  9
$DIMCLRD
 70
     0
  9
$DIMCLRE
 70
     0
  9
$DIMCLRT
 70
     0
  9
$DIMTFAC
 40
1.0
  9
$DIMGAP
 40
0.09
  9
$DIMJUST
 70
     0
  9
$DIMSD1
 70
     0
  9
$DIMSD2
 70
     0
  9
$DIMTOLJ
 70
     1
  9
$DIMTZIN
 70
     0
  9
$DIMALTZ
 70
     0
  9
$DIMALTTZ
 70
     0
  9
$DIMUPT
 70
     0
  9
$DIMDEC
 70
     4
  9
$DIMTDEC
 70
     4
  9
$DIMALTU
 70
     2
  9
$DIMALTTD
 70
     2
  9
$DIMTXSTY
  7
Standard
  9
$DIMAUNIT
 70
     0
  9
$DIMADEC
 70
     0
  9
$DIMALTRND
 40
0.0
  9
$DIMAZIN
 70
     0
  9
$DIMDSEP
 70
    46
  9
$DIMATFIT
 70
     3
  9
$DIMFRAC
 70
     0
  9
$DIMLDRBLK
  1

  9
$DIMLUNIT
 70
     2
  9
$DIMLWD
 70
    -2
  9
$DIMLWE
 70
    -2
  9
$DIMTMOVE
 70
     0
  9
$DIMFXL
 40
1.0
  9
$DIMFXLON
 70
     0
  9
$DIMJOGANG
 40
0.7853981633974483
  9
$DIMTFILL
 70
     0
  9
$DIMTFILLCLR
 70
     0
  9
$DIMARCSYM
 70
     0
  9
$DIMLTYPE
  6

  9
$DIMLTEX1
  6

  9
$DIMLTEX2
  6

  9
$DIMTXTDIRECTION
 70
     0
  9
$LUNITS
 70
     2
  9
$LUPREC
 70
     4
  9
$SKETCHINC
 40
0.1
  9
$FILLETRAD
 40
0.0
  9
$AUNITS
 70
     0
  9
$AUPREC
 70
     0
  9
$MENU
  1
.
  9
$ELEVATION
 40
0.0
  9
$PELEVATION
 40
0.0
  9
$THICKNESS
 40
0.0
  9
$LIMCHECK
 70
     0
  9
$CHAMFERA
 40
0.0
  9
$CHAMFERB
 40
0.0
  9
$CHAMFERC
 40
0.0
  9
$CHAMFERD
 40
0.0
  9
$SKPOLY
 70
     0
  9
$TDCREATE
 40
2460479.971724538
  9
$TDUCREATE
 40
2460480.138391204
  9
$TDUPDATE
 40
2460479.971724538
  9
$TDUUPDATE
 40
2460480.138391204
  9
$TDINDWG
 40
0.0000000000
  9
$TDUSRTIMER
 40
0.0000000000
  9
$USRTIMER
 70
     1
  9
$ANGBASE
 50
0.0
  9
$ANGDIR
 70
     0
  9
$PDMODE
 70
     0
  9
$PDSIZE
 40
0.0
  9
$PLINEWID
 40
0.0
  9
$SPLFRAME
 70
     0
  9
$SPLINETYPE
 70
     6
  9
$SPLINESEGS
 70
     8
  9
$HANDSEED
  5
B4
  9
$SURFTAB1
 70
     6
  9
$SURFTAB2
 70
     6
  9
$SURFTYPE
 70
     6
  9
$SURFU
 70
     6
  9
$SURFV
 70
     6
  9
$UCSBASE
  2

  9
$UCSNAME
  2

  9
$UCSORG
 10
0.0
 20
0.0
 30
0.0
  9
$UCSXDIR
 10
1.0
 20
0.0
 30
0.0
  9
$UCSYDIR
 10
0.0
 20
1.0
 30
0.0
  9
$UCSORTHOREF
  2

  9
$UCSORTHOVIEW
 70
     0
  9
$UCSORGTOP
 10
0.0
 20
0.0
 30
0.0
  9
$UCSORGBOTTOM
 10
0.0
 20
0.0
 30
0.0
  9
$UCSORGLEFT
 10
0.0
 20
0.0
 30
0.0
  9
$UCSORGRIGHT
 10
0.0
 20
0.0
 30
0.0
  9
$UCSORGFRONT
 10
0.0
 20
0.0
 30
0.0
  9
$UCSORGBACK
 10
0.0
 20
0.0
 30
0.0
  9
$PUCSBASE
  2

  9
$PUCSNAME
  2

  9
$PUCSORG
 10
0.0
 20
0.0
 30
0.0
  9
$PUCSXDIR
 10
1.0
 20
0.0
 30
0.0
  9
$PUCSYDIR
 10
0.0
 20
1.0
 30
0.0
  9
$PUCSORTHOREF
  2

  9
$PUCSORTHOVIEW
 70
     0
  9
$PUCSORGTOP
 10
0.0
 20
0.0
 30
0.0
  9
$PUCSORGBOTTOM
 10
0.0
 20
0.0
 30
0.0
  9
$PUCSORGLEFT
 10
0.0
 20
0.0
 30
0.0
  9
$PUCSORGRIGHT
 10
0.0
 20
0.0
 30
0.0
  9
$PUCSORGFRONT
 10
0.0
 20
0.0
 30
0.0
  9
$PUCSORGBACK
 10
0.0
 20
0.0
 30
0.0
  9
$USERI1
 70
     0
  9
$USERI2
 70
     0
  9
$USERI3
 70
     0
  9
$USERI4
 70
     0
  9
$USERI5
 70
     0
  9
$USERR1
 40
0.0
  9
$USERR2
 40
0.0
  9
$USERR3
 40
0.0
  9
$USERR4
 40
0.0
  9
$USERR5
 40
0.0
  9
$WORLDVIEW
 70
     1
  9
$SHADEDGE
 70
     3
  9
$SHADEDIF
 70
    70
  9
$TILEMODE
 70
     1
  9
$MAXACTVP
 70
    64
  9
$PINSBASE
 10
0.0
 20
0.0
 30
0.0
  9
$PLIMCHECK
 70
     0
  9
$PEXTMIN
 10
1.000000000000000E+20
 20
1.000000000000000E+20
 30
1.000000000000000E+20
  9
$PEXTMAX
 10
-1.000000000000000E+20
 20
-1.000000000000000E+20
 30
-1.000000000000000E+20
  9
$PLIMMIN
 10
0.0
 20
0.0
  9
$PLIMMAX
 10
12.0
 20
9.0
  9
$UNITMODE
 70
     0
  9
$VISRETAIN
 70
     1
  9
$PLINEGEN
 70
     0
  9
$PSLTSCALE
 70
     1
  9
$TREEDEPTH
 70
  3020
  9
$CMLSTYLE
  2
Standard
  9
$CMLJUST
 70
     0
  9
$CMLSCALE
 40
1.0
  9
$PROXYGRAPHICS
 70
     1
  9
$MEASUREMENT
 70
     0
  9
$CELWEIGHT
370
    -1
  9
$ENDCAPS
280
     0
  9
$JOINSTYLE
280
     0
  9
$LWDISPLAY
290
     1
  9
$INSUNITS
 70
     4
  9
$HYPERLINKBASE
  1

  9
$STYLESHEET
  1

  9
$XEDIT
290
     1
  9
$CEPSNTYPE
380
     0
  9
$PSTYLEMODE
290
     1
  9
$FINGERPRINTGUID
  2
{09030AF6-A059-CC4A-BBC8-A2C21442FCD2}
  9
$VERSIONGUID
  2
{A746B266-8E82-484D-AFDC-2206B9395BE6}
  9
$EXTNAMES
290
     1
  9
$PSVPSCALE
 40
0.0
  9
$OLESTARTUP
290
     0
  9
$SORTENTS
280
   127
  9
$INDEXCTL
280
     0
  9
$HIDETEXT
280
     1
  9
$XCLIPFRAME
280
     2
  9
$HALOGAP
280
     0
  9
$OBSCOLOR
 70
   257
  9
$OBSLTYPE
280
     0
  9
$INTERSECTIONDISPLAY
280
     0
  9
$INTERSECTIONCOLOR
 70
   257
  9
$DIMASSOC
280
     2
  9
$PROJECTNAME
  1

  9
$CAMERADISPLAY
290
     0
  9
$LENSLENGTH
 40
50.0
  9
$CAMERAHEIGHT
 40
0.0
  9
$STEPSPERSEC
 40
2.0
  9
$STEPSIZE
 40
6.0
  9
$3DDWFPREC
 40
2.0
  9
$PSOLWIDTH
 40
0.25
  9
$PSOLHEIGHT
 40
4.0
  9
$LOFTANG1
 40
1.570796326794896
  9
$LOFTANG2
 40
1.570796326794896
  9
$LOFTMAG1
 40
0.0
  9
$LOFTMAG2
 40
0.0
  9
$LOFTPARAM
 70
     7
  9
$LOFTNORMALS
280
     1
  9
$LATITUDE
 40
37.795
  9
$LONGITUDE
 40
-122.394
  9
$NORTHDIRECTION
 40
0.0
  9
$TIMEZONE
 70
 -8000
  9
$LIGHTGLYPHDISPLAY
280
     1
  9
$TILEMODELIGHTSYNCH
280
     1
  9
$CMATERIAL
347
11
  9
$SOLIDHIST
280
     0
  9
$SHOWHIST
280
     1
  9
$DWFFRAME
280
     2
  9
$DGNFRAME
280
     0
  9
$REALWORLDSCALE
290
     1
  9
$INTERFERECOLOR
 62
     1
  9
$INTERFEREOBJVS
345
33
  9
$INTERFEREVPVS
346
30
  9
$CSHADOW
280
     0
  9
$SHADOWPLANELOCATION
 40
0.0
  0
ENDSEC
  0
SECTION
  2
CLASSES
  0
CLASS
  1
ACDBDICTIONARYWDFLT
  2
AcDbDictionaryWithDefault
  3
ObjectDBX Classes
 90
        0
 91
        1
280
     0
281
     0
  0
CLASS
  1
MATERIAL
  2
AcDbMaterial
  3
ObjectDBX Classes
 90
     1153
 91
        3
280
     0
281
     0
  0
CLASS
  1
VISUALSTYLE
  2
AcDbVisualStyle
  3
ObjectDBX Classes
 90
     4095
 91
       24
280
     0
281
     0
  0
CLASS
  1
SCALE
  2
AcDbScale
  3
ObjectDBX Classes
 90
     1153
 91
       17
280
     0
281
     0
  0
CLASS
  1
TABLESTYLE
  2
AcDbTableStyle
  3
ObjectDBX Classes
 90
     4095
 91
        1
280
     0
281
     0
  0
CLASS
  1
MLEADERSTYLE
  2
AcDbMLeaderStyle
  3
ACDB_MLEADERSTYLE_CLASS
 90
     4095
 91
        1
280
     0
281
     0
  0
CLASS
  1
ACDBSECTIONVIEWSTYLE
  2
AcDbSectionViewStyle
  3
ObjectDBX Classes
 90
     1025
 91
        1
280
     0
281
     0
  0
CLASS
  1
ACDBDETAILVIEWSTYLE
  2
AcDbDetailViewStyle
  3
ObjectDBX Classes
 90
     1025
 91
        1
280
     0
281
     0
  0
CLASS
  1
DICTIONARYVAR
  2
AcDbDictionaryVar
  3
ObjectDBX Classes
 90
        0
 91
        5
280
     0
281
     0
  0
CLASS
  1
CELLSTYLEMAP
  2
AcDbCellStyleMap
  3
ObjectDBX Classes
 90
     1152
 91
        1
280
     0
281
     0
  0
ENDSEC
  0
SECTION
  2
TABLES
  0
TABLE
  2
VPORT
  5
8
330
0
100
AcDbSymbolTable
 70
     1
  0
VPORT
  5
57
330
8
100
AcDbSymbolTableRecord
100
AcDbViewportTableRecord
  2
*Active
 70
     0
 10
0.0
 20
0.0
 11
1.0
 21
1.0
 12
0.0
 22
0.0
 13
0.0
 23
0.0
 14
1.0
 24
1.0
 15
0.0
 25
0.0
 16
0.0
 26
0.0
 36
1.0
 17
62.44167949377458
 27
50.09445664605308
 37
0.0
 40
141.2699920121314
 41
0.9999999724570596
 42
50.0
 43
0.0
 44
0.0
 50
0.0
 51
0.0
 71
     0
 72
   100
 73
     1
 74
     1
 75
     0
 76
     0
 77
     0
 78
     0
281
     0
 65
     1
110
0.0
120
0.0
130
0.0
111
1.0
121
0.0
131
0.0
112
0.0
122
1.0
132
0.0
 79
     0
146
0.0
 60
     3
 61
     5
292
     1
282
     1
141
0.0
142
0.0
 63
   250
421
  3355443
  0
ENDTAB
  0
TABLE
  2
LTYPE
  5
5
330
0
100
AcDbSymbolTable
 70
     1
  0
LTYPE
  5
5B
330
5
100
AcDbSymbolTableRecord
100
AcDbLinetypeTableRecord
  2
ByBlock
 70
     0
  3

 72
    65
 73
     0
 40
0.0
  0
LTYPE
  5
5C
330
5
100
AcDbSymbolTableRecord
100
AcDbLinetypeTableRecord
  2
ByLayer
 70
     0
  3

 72
    65
 73
     0
 40
0.0
  0
LTYPE
  5
5D
330
5
100
AcDbSymbolTableRecord
100
AcDbLinetypeTableRecord
  2
Continuous
 70
     0
  3
Solid line
 72
    65
 73
     0
 40
0.0
  0
ENDTAB
  0
TABLE
  2
LAYER
  5
2
330
0
100
AcDbSymbolTable
 70
     6
  0
LAYER
  5
54
330
2
100
AcDbSymbolTableRecord
100
AcDbLayerTableRecord
  2
0
 70
     0
 62
     7
  6
Continuous
370
    -3
390
F
347
21
348
0
  0
LAYER
  5
78
330
2
100
AcDbSymbolTableRecord
100
AcDbLayerTableRecord
  2
Layer 1
 70
     0
 62
     7
  6
Continuous
370
     0
390
F
347
21
348
0
  0
LAYER
  5
7B
330
2
100
AcDbSymbolTableRecord
100
AcDbLayerTableRecord
  2
Layer 3
 70
     1
 62
     7
  6
Continuous
370
     0
390
F
347
21
348
0
  0
LAYER
  5
84
330
2
100
AcDbSymbolTableRecord
100
AcDbLayerTableRecord
  2
Layer 5
 70
     0
 62
     7
  6
Continuous
370
     0
390
F
347
21
348
0
  0
LAYER
  5
88
330
2
100
AcDbSymbolTableRecord
100
AcDbLayerTableRecord
  2
Layer 4
 70
     1
 62
     7
  6
Continuous
370
     0
390
F
347
21
348
0
  0
LAYER
  5
8A
330
2
100
AcDbSymbolTableRecord
100
AcDbLayerTableRecord
  2
Layer 2
 70
     1
 62
     7
  6
Continuous
370
     0
390
F
347
21
348
0
  0
ENDTAB
  0
TABLE
  2
STYLE
  5
3
330
0
100
AcDbSymbolTable
 70
     2
  0
STYLE
  5
55
330
3
100
AcDbSymbolTableRecord
100
AcDbTextStyleTableRecord
  2
Standard
 70
     0
 40
0.0
 41
1.0
 50
0.0
 71
     0
 42
0.2
  3
txt
  4

  0
STYLE
  5
5A
330
3
100
AcDbSymbolTableRecord
100
AcDbTextStyleTableRecord
  2
Annotative
 70
     0
 40
0.0
 41
1.0
 50
0.0
 71
     0
 42
0.2
  3
txt
  4

1001
AcadAnnotative
1000
AnnotativeData
1002
{
1070
     1
1070
     1
1002
}
  0
ENDTAB
  0
TABLE
  2
VIEW
  5
6
330
0
100
AcDbSymbolTable
 70
     0
  0
ENDTAB
  0
TABLE
  2
UCS
  5
7
330
0
100
AcDbSymbolTable
 70
     0
  0
ENDTAB
  0
TABLE
  2
APPID
  5
9
330
0
100
AcDbSymbolTable
 70
     2
  0
APPID
  5
56
330
9
100
AcDbSymbolTableRecord
100
AcDbRegAppTableRecord
  2
ACAD
 70
     0
  0
APPID
  5
5E
330
9
100
AcDbSymbolTableRecord
100
AcDbRegAppTableRecord
  2
AcadAnnotative
 70
     0
  0
ENDTAB
  0
TABLE
  2
DIMSTYLE
  5
A
330
0
100
AcDbSymbolTable
 70
     2
100
AcDbDimStyleTable
 71
     0
  0
DIMSTYLE
105
58
330
A
100
AcDbSymbolTableRecord
100
AcDbDimStyleTableRecord
  2
Standard
 70
     0
340
55
  0
DIMSTYLE
105
59
330
A
100
AcDbSymbolTableRecord
100
AcDbDimStyleTableRecord
  2
Annotative
 70
     0
340
55
1001
AcadAnnotative
1000
AnnotativeData
1002
{
1070
     1
1070
     1
1002
}
  0
ENDTAB
  0
TABLE
  2
BLOCK_RECORD
  5
1
330
0
100
AcDbSymbolTable
 70
     6
  0
BLOCK_RECORD
  5
70
330
1
100
AcDbSymbolTableRecord
100
AcDbBlockTableRecord
  2
*Model_Space
340
73
 70
     0
280
     1
281
     0
  0
BLOCK_RECORD
  5
6C
330
1
100
AcDbSymbolTableRecord
100
AcDbBlockTableRecord
  2
*Paper_Space
340
6F
 70
     0
280
     1
281
     0
  0
BLOCK_RECORD
  5
74
330
1
100
AcDbSymbolTableRecord
100
AcDbBlockTableRecord
  2
*Paper_Space0
340
77
 70
     0
280
     1
281
     0
  0
BLOCK_RECORD
  5
7C
330
1
100
AcDbSymbolTableRecord
100
AcDbBlockTableRecord
  2
Block_0
340
0
102
{BLKREFS
331
7D
102
}
 70
     0
280
     1
281
     0
  0
BLOCK_RECORD
  5
8B
330
1
100
AcDbSymbolTableRecord
100
AcDbBlockTableRecord
  2
Block_1
340
0
102
{BLKREFS
331
8C
102
}
 70
     0
280
     1
281
     0
  0
BLOCK_RECORD
  5
93
330
1
100
AcDbSymbolTableRecord
100
AcDbBlockTableRecord
  2
Block_2
340
0
102
{BLKREFS
331
94
102
}
 70
     0
280
     1
281
     0
  0
BLOCK_RECORD
  5
9B
330
1
100
AcDbSymbolTableRecord
100
AcDbBlockTableRecord
  2
Block_3
340
0
102
{BLKREFS
331
9C
102
}
 70
     0
280
     1
281
     0
  0
BLOCK_RECORD
  5
A3
330
1
100
AcDbSymbolTableRecord
100
AcDbBlockTableRecord
  2
Block_4
340
0
102
{BLKREFS
331
A4
102
}
 70
     0
280
     1
281
     0
  0
ENDTAB
  0
ENDSEC
  0
SECTION
  2
BLOCKS
  0
BLOCK
  5
71
330
70
100
AcDbEntity
  8
0
100
AcDbBlockBegin
  2
*Model_Space
 70
     0
 10
0.0
 20
0.0
 30
0.0
  3
*Model_Space
  1

  0
ENDBLK
  5
72
330
70
100
AcDbEntity
  8
0
100
AcDbBlockEnd
  0
BLOCK
  5
6D
330
6C
100
AcDbEntity
 67
     1
  8
0
100
AcDbBlockBegin
  2
*Paper_Space
 70
     0
 10
0.0
 20
0.0
 30
0.0
  3
*Paper_Space
  1

  0
ENDBLK
  5
6E
330
6C
100
AcDbEntity
 67
     1
  8
0
100
AcDbBlockEnd
  0
BLOCK
  5
75
330
74
100
AcDbEntity
 67
     1
  8
0
100
AcDbBlockBegin
  2
*Paper_Space0
 70
     0
 10
0.0
 20
0.0
 30
0.0
  3
*Paper_Space0
  1

  0
ENDBLK
  5
76
330
74
100
AcDbEntity
 67
     1
  8
0
100
AcDbBlockEnd
  0
BLOCK
  5
7E
330
7C
100
AcDbEntity
  8
0
100
AcDbBlockBegin
  2
Block_0
 70
     0
 10
0.0
 20
0.0
 30
0.0
  3
Block_0
  1

  0
LINE
  5
80
330
7C
100
AcDbEntity
  8
Layer 3
 62
     1
420
 16711680
370
     0
100
AcDbLine
 10
62.44167949377505
 20
18.21295665402358
 30
0.0
 11
62.44167949377505
 21
81.97595663808257
 31
0.0
  0
LINE
  5
81
330
7C
100
AcDbEntity
  8
Layer 3
 62
     1
420
 16711680
370
     0
100
AcDbLine
 10
90.05186839714891
 20
34.15370664921247
 30
0.0
 11
34.8314905904012
 21
66.03520664289465
 31
0.0
  0
LINE
  5
82
330
7C
100
AcDbEntity
  8
Layer 3
 62
     1
420
 16711680
370
     0
100
AcDbLine
 10
90.05186839857989
 20
66.03520664041512
 30
0.0
 11
34.83149058896958
 21
34.15370665169135
 31
0.0
  0
ENDBLK
  5
7F
330
7C
100
AcDbEntity
  8
0
100
AcDbBlockEnd
  0
BLOCK
  5
8D
330
8B
100
AcDbEntity
  8
0
100
AcDbBlockBegin
  2
Block_1
 70
     0
 10
0.0
 20
0.0
 30
0.0
  3
Block_1
  1

  0
LWPOLYLINE
  5
8F
330
8B
100
AcDbEntity
  8
Layer 2
 62
     1
420
 16711680
370
     0
100
AcDbPolyline
 90
       41
 70
     1
 43
0.0
 10
36.91590735040418
 20
59.09206983435584
 10
37.2448864085734
 20
59.19153565983686
 10
37.54691755703218
 20
59.35344281992838
 10
37.66089948742057
 20
59.4467187867654
 10
37.81206392497438
 20
59.57042580628601
 10
38.03000647073316
 20
59.83604673677539
 10
38.19140809800778
 20
60.13886547653081
 10
38.29140333506565
 20
60.46711811610983
 10
38.32511880639214
 20
60.80904985920861
 10
38.30626924790026
 20
60.99774114711877
 10
38.29106215267723
 20
61.14996679504328
 10
38.19197953030294
 20
61.47802071907435
 10
38.02968989701458
 20
61.78097523951117
 10
37.81270691065695
 20
62.04612160745337
 10
37.69321917643486
 20
62.14416140685042
 10
37.54708421800747
 20
62.26406342330133
 10
37.24426724041312
 20
62.42546578048678
 10
37.1388660247691
 20
62.45757428689392
 10
36.91601387092358
 20
62.52546277970539
 10
36.57446533093118
 20
62.55825311689342
 10
36.23316592189936
 20
62.52511983515623
 10
35.90511199786892
 20
62.42603721278225
 10
35.60215571527136
 20
62.26374684958337
 10
35.33739182052632
 20
62.04584049124739
 10
35.11906856373112
 20
61.78114366264721
 10
35.00949270817179
 20
61.57555897983221
 10
34.9576669364565
 20
61.47832492289147
 10
34.85766993723789
 20
61.15007155340225
 10
34.83526567592738
 20
60.9167147939625
 10
34.82487960004954
 20
60.8085230134105
 10
34.85801288178641
 20
60.46722360437867
 10
34.9584013493359
 20
60.1386287815664
 10
34.96698065005987
 20
60.12251189622229
 10
35.11938513744907
 20
59.83621515991078
 10
35.33729149578473
 20
59.57145126516574
 10
35.42113870216364
 20
59.50229218814953
 10
35.60198905429607
 20
59.35312624621044
 10
35.90480779405182
 20
59.19172461893549
 10
36.21135875425983
 20
59.09833754316014
 10
36.23306116354103
 20
59.09172761971753
 10
36.57499041456887
 20
59.05801318063998
  0
LWPOLYLINE
  5
90
330
8B
100
AcDbEntity
  8
Layer 2
 62
     1
420
 16711680
370
     0
100
AcDbPolyline
 90
       41
 70
     1
 43
0.0
 10
52.06825785070144
 20
22.51105975354596
 10
52.39723690887065
 20
22.61052557902761
 10
52.69926805732944
 20
22.77243273911881
 10
52.81324998771783
 20
22.86570870595551
 10
52.96441442527163
 20
22.98941572547708
 10
53.18235697103042
 20
23.25503665596581
 10
53.34375859830441
 20
23.55785539572156
 10
53.44375383536291
 20
23.88610803530057
 10
53.4774693066894
 20
24.22803977839936
 10
53.45861974819752
 20
24.41673106630919
 10
53.44341265297449
 20
24.56895671423403
 10
53.3443300306002
 20
24.8970106382651
 10
53.18204039731184
 20
25.19996515870192
 10
52.96505741095421
 20
25.46511152664412
 10
52.84556967673212
 20
25.56315132604117
 10
52.69943471830472
 20
25.68305334249207
 10
52.39661774070973
 20
25.84445569967753
 10
52.29121652506572
 20
25.87656420608467
 10
52.06836437121987
 20
25.94445269889614
 10
51.72681583122844
 20
25.97724303608449
 10
51.38551642219693
 20
25.94410975434634
 10
51.05746249816618
 20
25.84502713197333
 10
50.75450621556861
 20
25.68273676877412
 10
50.48974232082262
 20
25.46483041043846
 10
50.27141906402774
 20
25.20013358183796
 10
50.16184320846905
 20
24.99454889902296
 10
50.11001743675407
 20
24.89731484208221
 10
50.01002043753547
 20
24.569061472593
 10
49.98761617622464
 20
24.33570471315293
 10
49.9772301003468
 20
24.22751293260093
 10
50.01036338208367
 20
23.8862135235691
 10
50.11075184963316
 20
23.55761870075715
 10
50.11933115035713
 20
23.54150181541337
 10
50.27173563774632
 20
23.25520507910121
 10
50.48964199608199
 20
22.99044118435681
 10
50.57348920246122
 20
22.92128210733964
 10
50.75433955459333
 20
22.77211616540151
 10
51.05715829434907
 20
22.61071453812689
 10
51.36370925455708
 20
22.51732746235089
 10
51.38541166383828
 20
22.51071753890827
 10
51.72734091486613
 20
22.47700309983105
  0
LWPOLYLINE
  5
91
330
8B
100
AcDbEntity
  8
Layer 2
 62
     1
420
 16711680
370
     0
100
AcDbPolyline
 90
       41
 70
     1
 43
0.0
 10
73.49691743121375
 20
74.24442033465246
 10
73.82589648938297
 20
74.34388616013412
 10
74.12792763784239
 20
74.50579332022596
 10
74.24190956823078
 20
74.59906928706266
 10
74.3930740057833
 20
74.72277630658294
 10
74.61101655154209
 20
74.98839723707232
 10
74.77241817881672
 20
75.29121597682774
 10
74.87241341587523
 20
75.61946861640644
 10
74.90612888720171
 20
75.96140035950587
 10
74.88727932870983
 20
76.15009164741602
 10
74.87207223348744
 20
76.30231729534085
 10
74.77298961111187
 20
76.63037121937161
 10
74.61069997782479
 20
76.93332573980875
 10
74.39371699146652
 20
77.19847210775063
 10
74.27422925724378
 20
77.29651190714704
 10
74.12809429881704
 20
77.41641392359858
 10
73.82527732122205
 20
77.57781628078372
 10
73.71987610557804
 20
77.60992478719117
 10
73.49702395173219
 20
77.67781328000232
 10
73.15547541174075
 20
77.71060361719036
 10
72.81417600270893
 20
77.67747033545349
 10
72.48612207867849
 20
77.5783877130792
 10
72.18316579608028
 20
77.41609734988063
 10
71.9184019013346
 20
77.19819099154432
 10
71.70007864454006
 20
76.93349416294447
 10
71.59050278898137
 20
76.72790948012914
 10
71.53867701726543
 20
76.63067542318872
 10
71.43868001804746
 20
76.30242205369919
 10
71.41627575673695
 20
76.06906529425943
 10
71.40588968085848
 20
75.96087351370744
 10
71.43902296259598
 20
75.61957410467593
 10
71.53941143014482
 20
75.29097928186399
 10
71.54799073086945
 20
75.27486239651924
 10
71.70039521825863
 20
74.98856566020804
 10
71.91830157659366
 20
74.72380176546268
 10
72.0021487829732
 20
74.6546426884468
 10
72.18299913510564
 20
74.50547674650737
 10
72.48581787486138
 20
74.34407511923275
 10
72.79236883506875
 20
74.2506880434574
 10
72.81407124434996
 20
74.24407812001446
 10
73.15600049537843
 20
74.21036368093692
  0
LWPOLYLINE
  5
92
330
8B
100
AcDbEntity
  8
Layer 2
 62
     1
420
 16711680
370
     0
100
AcDbPolyline
 90
       41
 70
     1
 43
0.0
 10
88.64926793151036
 20
37.66341025384321
 10
88.97824698967959
 20
37.76287607932486
 10
89.28027813813901
 20
37.92478323941607
 10
89.39426006852739
 20
38.01805920625341
 10
89.54542450608121
 20
38.14176622577369
 10
89.76336705183999
 20
38.40738715626307
 10
89.92476867911333
 20
38.71020589601882
 10
90.02476391617184
 20
39.03845853559719
 10
90.05847938749962
 20
39.38039027869662
 10
90.03962982900644
 20
39.56908156660709
 10
90.02442273378406
 20
39.72130721453129
 10
89.92534011140977
 20
40.04936113856236
 10
89.76305047812141
 20
40.35231565899918
 10
89.54606749176441
 20
40.61746202694137
 10
89.42657975754169
 20
40.71550182633842
 10
89.28044479911365
 20
40.83540384278932
 10
88.97762782151867
 20
40.99680619997478
 10
88.87222660587465
 20
41.02891470638192
 10
88.64937445202881
 20
41.09680319919275
 10
88.30782591203737
 20
41.12959353638174
 10
87.96652650300684
 20
41.09646025464424
 10
87.63847257897511
 20
40.99737763226993
 10
87.33551629637819
 20
40.83508726907074
 10
87.0707524016325
 20
40.61718091073571
 10
86.85242914483666
 20
40.35248408213521
 10
86.74285328927798
 20
40.14689939932021
 10
86.69102751756332
 20
40.04966534237946
 10
86.59103051834406
 20
39.72141197289026
 10
86.56862625703357
 20
39.48805521345018
 10
86.55824018115637
 20
39.37986343289818
 10
86.59137346289389
 20
39.038564023867
 10
86.69176193044272
 20
38.7099692010544
 10
86.70034123116606
 20
38.69385231570998
 10
86.85274571855654
 20
38.40755557939846
 10
87.07065207689156
 20
38.14279168465343
 10
87.15449928326982
 20
38.0736326076369
 10
87.33534963540225
 20
37.92446666569812
 10
87.638168375158
 20
37.76306503842351
 10
87.94471933536666
 20
37.66967796264815
 10
87.96642174464786
 20
37.66306803920553
 10
88.30835099567506
 20
37.62935360012767
  0
ENDBLK
  5
8E
330
8B
100
AcDbEntity
  8
0
100
AcDbBlockEnd
  0
BLOCK
  5
95
330
93
100
AcDbEntity
  8
0
100
AcDbBlockBegin
  2
Block_2
 70
     0
 10
0.0
 20
0.0
 30
0.0
  3
Block_2
  1

  0
LWPOLYLINE
  5
97
330
93
100
AcDbEntity
  8
Layer 2
 62
     1
420
 16711680
370
     0
100
AcDbPolyline
 90
       41
 70
     1
 43
0.0
 10
35.41570356095888
 20
48.63887721488868
 10
35.68157665593034
 20
48.85666649038849
 10
35.89865786442758
 20
49.12183151833492
 10
35.96826826984497
 20
49.25162627131854
 10
36.06058537290762
 20
49.42376478049563
 10
36.16028930081496
 20
49.75256952304909
 10
36.19352124605685
 20
50.09410328748475
 10
36.1602879521301
 20
50.43563570322239
 10
36.06058537293777
 20
50.76444179447964
 10
35.97096162193695
 20
50.93155639960194
 10
35.89865786447057
 20
51.06637505664708
 10
35.68157665598681
 20
51.33154008460409
 10
35.415704909723
 20
51.54932801141647
 10
35.11377164756357
 20
51.71125551989652
 10
34.96586116858856
 20
51.75610650767529
 10
34.78496555631017
 20
51.81095809910392
 10
34.44343314057478
 20
51.84419139304575
 10
34.33376772129915
 20
51.83352048595796
 10
34.10189937613752
 20
51.8109594478183
 10
33.77380135189503
 20
51.71054880161089
 10
33.47116137141116
 20
51.54932801146011
 10
33.20599634345511
 20
51.33224680297571
 10
32.9882070679431
 20
51.06637370801323
 10
32.82698627777853
 20
50.76373372753707
 10
32.72657698025599
 20
50.43563705199868
 10
32.70401594210542
 20
50.20376870683769
 10
32.69334503501377
 20
50.09410328756335
 10
32.72657698023994
 20
49.75256952312641
 10
32.79517990743976
 20
49.52840224968788
 10
32.82698762644767
 20
49.4244714988836
 10
32.98820841659813
 20
49.12183151840038
 10
33.20670306171539
 20
48.85666649044432
 10
33.22079696705987
 20
48.84505958619502
 10
33.4711613713457
 20
48.63887856363098
 10
33.77380135182188
 20
48.47765777346641
 10
33.8777321026255
 20
48.445850054454
 10
34.10189937606051
 20
48.37724712724456
 10
34.44343314049584
 20
48.34401518200235
 10
34.76238698500007
 20
48.37504874773566
 10
34.78496690493246
 20
48.37724712722916
 10
35.11377029879176
 20
48.47694970642148
  0
LWPOLYLINE
  5
98
330
93
100
AcDbEntity
  8
Layer 2
 62
     1
420
 16711680
370
     0
100
AcDbPolyline
 90
       41
 70
     1
 43
0.0
 10
63.41359655441236
 20
20.64098422017781
 10
63.67946964938381
 20
20.85877349567762
 10
63.8965508578804
 20
21.12393852362469
 10
63.96616126329812
 20
21.2537332766083
 10
64.05847836636045
 20
21.42587178578539
 10
64.15818229426682
 20
21.75467652833885
 10
64.19141423950968
 20
22.09621029277419
 10
64.15818094558357
 20
22.43774270851151
 10
64.05847836639124
 20
22.7665487997694
 10
63.96885461539042
 20
22.93366340489107
 10
63.89655085792404
 20
23.06848206193652
 10
63.67946964943899
 20
23.33364708989385
 10
63.41359790317646
 20
23.55143501670592
 10
63.11166464101575
 20
23.71336252518596
 10
62.96375416204138
 20
23.75821351296474
 10
62.78285854976331
 20
23.81306510439368
 10
62.44132613402729
 20
23.84629839833519
 10
62.3316607147523
 20
23.8356274912474
 10
62.09979236959067
 20
23.81306645310774
 10
61.77169434534754
 20
23.71265580690129
 10
61.46905436486495
 20
23.55143501674955
 10
61.20388933690826
 20
23.33435380826451
 10
60.9861000613969
 20
23.06848071330332
 10
60.82487927123167
 20
22.76584073282715
 10
60.72446997370914
 20
22.43774405728845
 10
60.70190893555921
 20
22.20587571212745
 10
60.69123802846628
 20
22.09621029285248
 10
60.72446997369373
 20
21.75467652841586
 10
60.79307290089291
 20
21.53050925497764
 10
60.82488061990082
 20
21.42657850417337
 10
60.98610141005224
 20
21.1239385236895
 10
61.20459605516885
 20
20.85877349573409
 10
61.21868996051398
 20
20.84716659148415
 10
61.46905436479917
 20
20.64098556892075
 10
61.77169434527566
 20
20.47976477875617
 10
61.87562509607865
 20
20.44795705974377
 10
62.09979236951365
 20
20.37935413253432
 10
62.44132613394899
 20
20.34612218729147
 10
62.76027997845385
 20
20.37715575302542
 10
62.78285989838625
 20
20.37935413251892
 10
63.11166329224523
 20
20.47905671171124
  0
LWPOLYLINE
  5
99
330
93
100
AcDbEntity
  8
Layer 2
 62
     1
420
 16711680
370
     0
100
AcDbPolyline
 90
       41
 70
     1
 43
0.0
 10
63.41359655567008
 20
76.63677020834152
 10
63.67946965064153
 20
76.85455948384197
 10
63.89655085913814
 20
77.11972451178872
 10
63.96616126455456
 20
77.24951926477264
 10
64.05847836761818
 20
77.42165777394911
 10
64.15818229552455
 20
77.75046251650256
 10
64.1914142407674
 20
78.09199628093821
 10
64.15818094684002
 20
78.43352869667554
 10
64.05847836764897
 20
78.76233478793342
 10
63.96885461664815
 20
78.92944939305542
 10
63.89655085918177
 20
79.06426805010088
 10
63.67946965069672
 20
79.32943307805725
 10
63.41359790443419
 20
79.54722100486995
 10
63.11166464227349
 20
79.70914851335031
 10
62.96375416329912
 20
79.75399950112844
 10
62.78285855102009
 20
79.80885109255706
 10
62.44132613528533
 20
79.84208438649922
 10
62.3316607160094
 20
79.83141347941111
 10
62.09979237084775
 20
79.80885244127176
 10
61.77169434660527
 20
79.70844179506435
 10
61.46905436612268
 20
79.54722100491391
 10
61.20388933816567
 20
79.33013979642885
 10
60.98610006265334
 20
79.06426670146671
 10
60.82487927248877
 20
78.7616267209902
 10
60.72446997496622
 20
78.43353004545183
 10
60.7019089368163
 20
78.20166170029115
 10
60.69123802972433
 20
78.09199628101682
 10
60.72446997495082
 20
77.75046251657956
 10
60.79307290215063
 20
77.52629524314166
 10
60.8248806211579
 20
77.42236449233708
 10
60.986101411309
 20
77.11972451185385
 10
61.20459605642562
 20
76.85455948389748
 10
61.21868996177011
 20
76.84295257964818
 10
61.46905436605658
 20
76.63677155708509
 10
61.77169434653308
 20
76.47555076692052
 10
61.87562509733574
 20
76.4437430479078
 10
62.09979237077074
 20
76.37514012069835
 10
62.44132613520608
 20
76.34190817545583
 10
62.76027997970998
 20
76.37294174118881
 10
62.7828598996427
 20
76.37514012068263
 10
63.11166329350168
 20
76.47484269987495
  0
LWPOLYLINE
  5
9A
330
93
100
AcDbEntity
  8
Layer 2
 62
     1
420
 16711680
370
     0
100
AcDbPolyline
 90
       41
 70
     1
 43
0.0
 10
91.41148954912258
 20
48.63887721363096
 10
91.67736264409404
 20
48.85666648913141
 10
91.89444385259191
 20
49.12183151707847
 10
91.96405425800836
 20
49.25162627006208
 10
92.05637136107197
 20
49.42376477923854
 10
92.15607528897706
 20
49.75256952179233
 10
92.18930723421991
 20
50.09410328622766
 10
92.15607394029381
 20
50.43563570196497
 10
92.05637136110148
 20
50.76444179322287
 10
91.96674761010195
 20
50.93155639834486
 10
91.89444385263556
 20
51.06637505539032
 10
91.67736264414923
 20
51.33154008334701
 10
91.41149089788799
 20
51.54932801015938
 10
91.10955763572727
 20
51.71125551864007
 10
90.96164715675163
 20
51.75610650641821
 10
90.78075154447324
 20
51.8109580978465
 10
90.43921912873718
 20
51.84419139178866
 10
90.32955370946222
 20
51.83352048470087
 10
90.09768536430122
 20
51.81095944656153
 10
89.76958734005874
 20
51.71054880035445
 10
89.46694735957613
 20
51.54932801020335
 10
89.20178233161882
 20
51.3322468017183
 10
88.98399305610681
 20
51.06637370675615
 10
88.82277226594224
 20
50.7637337262803
 10
88.72236296841904
 20
50.43563705074159
 10
88.69980193026911
 20
50.2037687055806
 10
88.6891310231762
 20
50.09410328630626
 10
88.72236296840364
 20
49.75256952186932
 10
88.79096589560409
 20
49.52840224843143
 10
88.82277361461138
 20
49.42447149762652
 10
88.98399440476183
 20
49.12183151714328
 10
89.20248904987909
 20
48.85666648918724
 10
89.21658295522359
 20
48.84505958493729
 10
89.46694735951069
 20
48.63887856237454
 10
89.76958733998557
 20
48.47765777220995
 10
89.87351809078921
 20
48.44585005319691
 10
90.09768536422422
 20
48.37724712598811
 10
90.4392191286589
 20
48.34401518074526
 10
90.75817297316376
 20
48.37504874647857
 10
90.78075289309618
 20
48.37724712597271
 10
91.10955628695547
 20
48.47694970516439
  0
ENDBLK
  5
96
330
93
100
AcDbEntity
  8
0
100
AcDbBlockEnd
  0
BLOCK
  5
9D
330
9B
100
AcDbEntity
  8
0
100
AcDbBlockBegin
  2
Block_3
 70
     0
 10
0.0
 20
0.0
 30
0.0
  3
Block_3
  1

  0
LWPOLYLINE
  5
9F
330
9B
100
AcDbEntity
  8
Layer 2
 62
     1
420
 16711680
370
     0
100
AcDbPolyline
 90
       41
 70
     1
 43
0.0
 10
42.30217855675809
 20
68.17545740954692
 10
42.64417949872411
 20
68.14145701474089
 10
42.98517908271404
 20
68.17545740954692
 10
43.1261798224219
 20
68.21801416983593
 10
43.31317817915844
 20
68.27445642738668
 10
43.61617956583435
 20
68.43645516700604
 10
43.88117894049885
 20
68.65445747401541
 10
44.09917934015922
 20
68.91945684867991
 10
44.26117998712726
 20
69.22245823535582
 10
44.31597429555245
 20
69.40399966796197
 10
44.36017900496703
 20
69.55045733179992
 10
44.39417939977338
 20
69.89145691579015
 10
44.36017900496703
 20
70.23345595040749
 10
44.26117998712726
 20
70.56145504685126
 10
44.18830592203377
 20
70.6977579871426
 10
44.09917934015922
 20
70.86445643352748
 10
43.88117894049885
 20
71.12945580819199
 10
43.79608830810313
 20
71.1994554990582
 10
43.61617956583435
 20
71.34745811520136
 10
43.31317817915844
 20
71.50845740419363
 10
42.98517908271404
 20
71.60845587266049
 10
42.64417949872411
 20
71.64245626746652
 10
42.30217855675809
 20
71.60845587266049
 10
41.97417946031368
 20
71.50845740419363
 10
41.67117998098678
 20
71.34745811520136
 10
41.49127123871801
 20
71.1994554990582
 10
41.40618060632228
 20
71.12945580819199
 10
41.1881782993129
 20
70.86445643352748
 10
41.07817769518114
 20
70.65743663932519
 10
41.02717901032032
 20
70.56145504685126
 10
40.92718054185346
 20
70.23345595040749
 10
40.89417959767484
 20
69.89145691579015
 10
40.89593817301454
 20
69.87328369904462
 10
40.92718054185346
 20
69.55045733179992
 10
41.02717901032032
 20
69.22245823535582
 10
41.07817769518114
 20
69.12647664288255
 10
41.1881782993129
 20
68.91945684867991
 10
41.40618060632228
 20
68.65445747401541
 10
41.65365907743614
 20
68.45086709246068
 10
41.67117998098678
 20
68.43645516700604
 10
41.97417946031368
 20
68.27445642738668
  0
LWPOLYLINE
  5
A0
330
9B
100
AcDbEntity
  8
Layer 2
 62
     1
420
 16711680
370
     0
100
AcDbPolyline
 90
       41
 70
     1
 43
0.0
 10
42.30217855675809
 20
28.58045741944535
 10
42.64417949872411
 20
28.54645702463965
 10
42.98517908271404
 20
28.58045741944535
 10
43.1261798224219
 20
28.62301417973436
 10
43.31317817915844
 20
28.67945643728512
 10
43.61617956583435
 20
28.84145517690479
 10
43.88117894049885
 20
29.05945748391417
 10
44.09917934015922
 20
29.32445685857867
 10
44.26117998712726
 20
29.62745824525458
 10
44.31597429555245
 20
29.80899967786072
 10
44.36017900496703
 20
29.95545734169834
 10
44.39417939977338
 20
30.29645692568891
 10
44.36017900496703
 20
30.63845596030593
 10
44.26117998712726
 20
30.96645505675033
 10
44.18830592203377
 20
31.10275799704169
 10
44.09917934015922
 20
31.26945644342624
 10
43.88117894049885
 20
31.53445581809074
 10
43.79608830810313
 20
31.60445550895695
 10
43.61617956583435
 20
31.75245812510012
 10
43.31317817915844
 20
31.91345741409271
 10
42.98517908271404
 20
32.01345588255892
 10
42.64417949872411
 20
32.04745627736527
 10
42.30217855675809
 20
32.01345588255892
 10
41.97417946031368
 20
31.91345741409271
 10
41.67117998098678
 20
31.75245812510012
 10
41.49127123871801
 20
31.60445550895695
 10
41.40618060632228
 20
31.53445581809074
 10
41.1881782993129
 20
31.26945644342624
 10
41.07817769518114
 20
31.06243664922329
 10
41.02717901032032
 20
30.96645505675033
 10
40.92718054185346
 20
30.63845596030593
 10
40.89417959767484
 20
30.29645692568891
 10
40.89593817301454
 20
30.27828370894305
 10
40.92718054185346
 20
29.95545734169834
 10
41.02717901032032
 20
29.62745824525458
 10
41.07817769518114
 20
29.53147665278098
 10
41.1881782993129
 20
29.32445685857867
 10
41.40618060632228
 20
29.05945748391417
 10
41.65365907743614
 20
28.85586710235943
 10
41.67117998098678
 20
28.84145517690479
 10
41.97417946031368
 20
28.67945643728512
  0
LWPOLYLINE
  5
A1
330
9B
100
AcDbEntity
  8
Layer 2
 62
     1
420
 16711680
370
     0
100
AcDbPolyline
 90
       41
 70
     1
 43
0.0
 10
81.89717854685936
 20
68.17545740954692
 10
82.23917948882535
 20
68.14145701474089
 10
82.58017907281594
 20
68.17545740954692
 10
82.72117981252378
 20
68.21801416983593
 10
82.9081781692597
 20
68.27445642738668
 10
83.2111795559356
 20
68.43645516700604
 10
83.47617893060011
 20
68.65445747401541
 10
83.69417933026047
 20
68.91945684867991
 10
83.85617997722915
 20
69.22245823535582
 10
83.91097428565435
 20
69.40399966796197
 10
83.95517899506893
 20
69.55045733179992
 10
83.98917938987462
 20
69.89145691579015
 10
83.95517899506893
 20
70.23345595040749
 10
83.85617997722915
 20
70.56145504685126
 10
83.78330591213503
 20
70.6977579871426
 10
83.69417933026047
 20
70.86445643352748
 10
83.47617893060011
 20
71.12945580819199
 10
83.39108829820437
 20
71.1994554990582
 10
83.2111795559356
 20
71.34745811520136
 10
82.9081781692597
 20
71.50845740419363
 10
82.58017907281594
 20
71.60845587266049
 10
82.23917948882535
 20
71.64245626746652
 10
81.89717854685936
 20
71.60845587266049
 10
81.56917945041493
 20
71.50845740419363
 10
81.26617997108803
 20
71.34745811520136
 10
81.08627122881925
 20
71.1994554990582
 10
81.00118059642353
 20
71.12945580819199
 10
80.78317828941417
 20
70.86445643352748
 10
80.67317768528239
 20
70.65743663932519
 10
80.62217900042156
 20
70.56145504685126
 10
80.52218053195536
 20
70.23345595040749
 10
80.48917958777609
 20
69.89145691579015
 10
80.49093816311579
 20
69.87328369904462
 10
80.52218053195536
 20
69.55045733179992
 10
80.62217900042156
 20
69.22245823535582
 10
80.67317768528239
 20
69.12647664288255
 10
80.78317828941417
 20
68.91945684867991
 10
81.00118059642353
 20
68.65445747401541
 10
81.24865906753738
 20
68.45086709246068
 10
81.26617997108803
 20
68.43645516700604
 10
81.56917945041493
 20
68.27445642738668
  0
LWPOLYLINE
  5
A2
330
9B
100
AcDbEntity
  8
Layer 2
 62
     1
420
 16711680
370
     0
100
AcDbPolyline
 90
       41
 70
     1
 43
0.0
 10
81.89717854685936
 20
28.58045741944535
 10
82.23917948882535
 20
28.54645702463965
 10
82.58017907281594
 20
28.58045741944535
 10
82.72117981252378
 20
28.62301417973436
 10
82.9081781692597
 20
28.67945643728512
 10
83.2111795559356
 20
28.84145517690479
 10
83.47617893060011
 20
29.05945748391417
 10
83.69417933026047
 20
29.32445685857867
 10
83.85617997722915
 20
29.62745824525458
 10
83.91097428565435
 20
29.80899967786072
 10
83.95517899506893
 20
29.95545734169834
 10
83.98917938987462
 20
30.29645692568891
 10
83.95517899506893
 20
30.63845596030593
 10
83.85617997722915
 20
30.96645505675033
 10
83.78330591213503
 20
31.10275799704169
 10
83.69417933026047
 20
31.26945644342624
 10
83.47617893060011
 20
31.53445581809074
 10
83.39108829820437
 20
31.60445550895695
 10
83.2111795559356
 20
31.75245812510012
 10
82.9081781692597
 20
31.91345741409271
 10
82.58017907281594
 20
32.01345588255892
 10
82.23917948882535
 20
32.04745627736527
 10
81.89717854685936
 20
32.01345588255892
 10
81.56917945041493
 20
31.91345741409271
 10
81.26617997108803
 20
31.75245812510012
 10
81.08627122881925
 20
31.60445550895695
 10
81.00118059642353
 20
31.53445581809074
 10
80.78317828941417
 20
31.26945644342624
 10
80.67317768528239
 20
31.06243664922329
 10
80.62217900042156
 20
30.96645505675033
 10
80.52218053195536
 20
30.63845596030593
 10
80.48917958777609
 20
30.29645692568891
 10
80.49093816311579
 20
30.27828370894305
 10
80.52218053195536
 20
29.95545734169834
 10
80.62217900042156
 20
29.62745824525458
 10
80.67317768528239
 20
29.53147665278098
 10
80.78317828941417
 20
29.32445685857867
 10
81.00118059642353
 20
29.05945748391417
 10
81.24865906753738
 20
28.85586710235943
 10
81.26617997108803
 20
28.84145517690479
 10
81.56917945041493
 20
28.67945643728512
  0
ENDBLK
  5
9E
330
9B
100
AcDbEntity
  8
0
100
AcDbBlockEnd
  0
BLOCK
  5
A5
330
A3
100
AcDbEntity
  8
0
100
AcDbBlockBegin
  2
Block_4
 70
     0
 10
0.0
 20
0.0
 30
0.0
  3
Block_4
  1

  0
LWPOLYLINE
  5
A7
330
A3
100
AcDbEntity
  8
Layer 2
 62
     1
420
 16711680
370
     0
100
AcDbPolyline
 90
       41
 70
     1
 43
0.0
 10
50.75450621556893
 20
74.50617652333267
 10
51.0574624981665
 20
74.34388616013348
 10
51.38551642219693
 20
74.24480353775918
 10
51.53206988677995
 20
74.2301622105247
 10
51.72643335803225
 20
74.21074688404363
 10
52.06836437122084
 20
74.24446059321066
 10
52.39661774071005
 20
74.34445759242862
 10
52.69943471830504
 20
74.50585994961409
 10
52.96505741095453
 20
74.72380176546268
 10
53.08515364955145
 20
74.87055530532888
 10
53.18204039731216
 20
74.98894813340424
 10
53.34394755740432
 20
75.29097928186302
 10
53.44341265297481
 20
75.61995657787213
 10
53.47746930668971
 20
75.9608735137068
 10
53.46230332652915
 20
76.11468870782307
 10
53.44375383536323
 20
76.30280525680622
 10
53.34375859830505
 20
76.63105789638461
 10
53.29193282659007
 20
76.72829195332567
 10
53.18235697103074
 20
76.93387663614034
 10
52.96403195207544
 20
77.19857419465168
 10
52.69926805732976
 20
77.41648055298735
 10
52.39723690887097
 20
77.57838771307856
 10
52.06825785070176
 20
77.67785353856019
 10
51.72695844166993
 20
77.71098682029772
 10
51.38541166383861
 20
77.67819575319852
 10
51.16255950999276
 20
77.61030726038706
 10
51.05715829434907
 20
77.57819875397991
 10
50.75433955459365
 20
77.41679712670529
 10
50.57348920246122
 20
77.26763118476587
 10
50.48964199608231
 20
77.19847210774999
 10
50.27173563774664
 20
76.93370821300431
 10
50.11036937643696
 20
76.63037121937097
 10
50.10503949923847
 20
76.61290837873226
 10
50.01036338208399
 20
76.30269976853641
 10
49.97723010034712
 20
75.96140035950587
 10
49.98761617622496
 20
75.85320857895323
 10
50.01002043753547
 20
75.61985181951316
 10
50.11001743675407
 20
75.29159845002394
 10
50.26074706494689
 20
75.00879955272875
 10
50.2714190640287
 20
74.98877971026819
 10
50.48935984762739
 20
74.72315950968966
  0
LWPOLYLINE
  5
A8
330
A3
100
AcDbEntity
  8
Layer 2
 62
     1
420
 16711680
370
     0
100
AcDbPolyline
 90
       41
 70
     1
 43
0.0
 10
35.60215571527168
 20
37.92516644252278
 10
35.90511199786925
 20
37.76287607932423
 10
36.23316592189936
 20
37.66379345694993
 10
36.3797193864827
 20
37.64915212971447
 10
36.57408285773499
 20
37.62973680323438
 10
36.91601387092358
 20
37.6634505124014
 10
37.24426724041312
 20
37.76344751162002
 10
37.54708421800811
 20
37.92484986880483
 10
37.81270691065727
 20
38.14279168465343
 10
37.93280314925421
 20
38.28954522451963
 10
38.0296898970149
 20
38.40793805259434
 10
38.19159705710739
 20
38.70996920105377
 10
38.29106215267755
 20
39.03894649706288
 10
38.32511880639246
 20
39.37986343289754
 10
38.30995282623221
 20
39.53367862701446
 10
38.29140333506597
 20
39.72179517599697
 10
38.1914080980081
 20
40.05004781557534
 10
38.13958232629314
 20
40.14728187251608
 10
38.03000647073381
 20
40.35286655533109
 10
37.81168145177818
 20
40.61756411384243
 10
37.5469175570325
 20
40.83547047217745
 10
37.24488640857372
 20
40.99737763226929
 10
36.9159073504045
 20
41.09684345775095
 10
36.574607941373
 20
41.12997673948846
 10
36.23306116354199
 20
41.09718567238927
 10
36.01020900969583
 20
41.0292971795778
 10
35.90480779405214
 20
40.99718867317066
 10
35.60198905429639
 20
40.83578704589604
 10
35.42113870216364
 20
40.68662110395662
 10
35.33729149578505
 20
40.61746202694073
 10
35.11938513744939
 20
40.35269813219506
 10
34.9580188761397
 20
40.04936113856172
 10
34.95268899894121
 20
40.031898297923
 10
34.85801288178673
 20
39.72168968772717
 10
34.82487960004986
 20
39.38039027869662
 10
34.8352656759277
 20
39.27219849814398
 10
34.85766993723853
 20
39.03884173870391
 10
34.95766693645715
 20
38.71058836921469
 10
35.10839656464963
 20
38.42778947191949
 10
35.11906856373144
 20
38.40776962945895
 10
35.33700934733012
 20
38.14214942888041
  0
LWPOLYLINE
  5
A9
330
A3
100
AcDbEntity
  8
Layer 2
 62
     1
420
 16711680
370
     0
100
AcDbPolyline
 90
       41
 70
     1
 43
0.0
 10
87.33551629637819
 20
59.35382602303541
 10
87.63847257897575
 20
59.19153565983622
 10
87.96652650300684
 20
59.09245303746192
 10
88.11307996758985
 20
59.07781171022711
 10
88.3074434388415
 20
59.05839638374701
 10
88.64937445203009
 20
59.0921100929134
 10
88.9776278215193
 20
59.19210709213201
 10
89.28044479911431
 20
59.35350944931747
 10
89.54606749176441
 20
59.57145126516542
 10
89.66616373036071
 20
59.71820480503226
 10
89.76305047812205
 20
59.83659763310633
 10
89.92495763821326
 20
60.13862878156576
 10
90.0244227337847
 20
60.46760607757422
 10
90.05847938749962
 20
60.80852301340954
 10
90.04331340733871
 20
60.96233820752645
 10
90.02476391617248
 20
61.15045475650896
 10
89.92476867911461
 20
61.47870739608734
 10
89.87294290739932
 20
61.57594145302808
 10
89.76336705183999
 20
61.78152613584309
 10
89.5450420328847
 20
62.04622369435442
 10
89.28027813813965
 20
62.26413005269009
 10
88.97824698968022
 20
62.42603721278193
 10
88.649267931511
 20
62.52550303826295
 10
88.30796852247919
 20
62.55863632000045
 10
87.96642174464786
 20
62.52584525290127
 10
87.74356959080201
 20
62.45795676009044
 10
87.638168375158
 20
62.42584825368265
 10
87.33534963540289
 20
62.26444662640868
 10
87.15449928327046
 20
62.11528068446925
 10
87.07065207689156
 20
62.04612160745273
 10
86.85274571855654
 20
61.7813577127077
 10
86.69137945724621
 20
61.47802071907371
 10
86.68604958004772
 20
61.46055787843565
 10
86.59137346289389
 20
61.1503492682398
 10
86.55824018115637
 20
60.80904985920861
 10
86.56862625703421
 20
60.70085807865598
 10
86.59103051834472
 20
60.46750131921654
 10
86.69102751756332
 20
60.13924794972669
 10
86.84175714575614
 20
59.8564490524318
 10
86.85242914483795
 20
59.83642920997094
 10
87.07036992843599
 20
59.57080900939304
  0
LWPOLYLINE
  5
AA
330
A3
100
AcDbEntity
  8
Layer 2
 62
     1
420
 16711680
370
     0
100
AcDbPolyline
 90
       41
 70
     1
 43
0.0
 10
72.18316579608092
 20
22.77281594222552
 10
72.48612207867849
 20
22.61052557902697
 10
72.81417600270957
 20
22.51144295665267
 10
72.96072946729259
 20
22.49680162941786
 10
73.15509293854424
 20
22.47738630293777
 10
73.49702395173283
 20
22.51110001210415
 10
73.82527732122205
 20
22.61109701132276
 10
74.12809429881704
 20
22.77249936850822
 10
74.39371699146716
 20
22.99044118435617
 10
74.51381323006344
 20
23.13719472422302
 10
74.61069997782479
 20
23.25558755229709
 10
74.77260713791664
 20
23.55761870075651
 10
74.87207223348744
 20
23.88659599676497
 10
74.90612888720235
 20
24.22751293260029
 10
74.89096290704146
 20
24.3813281267172
 10
74.87241341587523
 20
24.56944467569972
 10
74.77241817881736
 20
24.89769731527809
 10
74.72059240710206
 20
24.99493137221883
 10
74.61101655154338
 20
25.20051605503384
 10
74.39269153258743
 20
25.46521361354518
 10
74.12792763784239
 20
25.6831199718802
 10
73.82589648938297
 20
25.84502713197268
 10
73.49691743121375
 20
25.94449295745369
 10
73.15561802218192
 20
25.9776262391912
 10
72.81407124435124
 20
25.94483517209202
 10
72.5912190905054
 20
25.87694667928119
 10
72.48581787486138
 20
25.84483817287341
 10
72.18299913510564
 20
25.68343654559943
 10
72.0021487829732
 20
25.53427060365936
 10
71.9183015765943
 20
25.46511152664348
 10
71.70039521825927
 20
25.20034763189844
 10
71.53902895694895
 20
24.89701063826446
 10
71.53369907975046
 20
24.8795477976264
 10
71.43902296259662
 20
24.56933918742991
 10
71.40588968085912
 20
24.22803977839936
 10
71.41627575673695
 20
24.11984799784673
 10
71.43868001804746
 20
23.88649123840729
 10
71.53867701726672
 20
23.55823786891743
 10
71.68940664545889
 20
23.27543897162223
 10
71.7000786445407
 20
23.25541912916169
 10
71.91801942813873
 20
22.9897989285838
  0
ENDBLK
  5
A6
330
A3
100
AcDbEntity
  8
0
100
AcDbBlockEnd
  0
ENDSEC
  0
SECTION
  2
ENTITIES
  0
LWPOLYLINE
  5
79
330
70
100
AcDbEntity
  8
Layer 1
 62
     1
420
 16711680
370
     0
100
AcDbPolyline
 90
       70
 70
     1
 43
0.0
 10
75.75909240799297
 20
75.00790177819469
 10
73.68461985974107
 20
75.98901874009438
 10
73.25300301509807
 20
76.1931530312729
 10
70.64296407417248
 20
77.1275692257707
 10
67.95383281351485
 20
77.80098265422998
 10
65.21159694003298
 20
78.20774267465091
 10
62.44224412695702
 20
78.34445717776285
 10
59.67289077510798
 20
78.20774267465091
 10
56.93065490162644
 20
77.80098265422998
 10
54.24152364097008
 20
77.1275692257707
 10
51.63148520514281
 20
76.1931530312729
 10
49.1253953071496
 20
75.00790177819469
 10
46.74698362626485
 20
73.58311244035748
 10
44.52110479794868
 20
71.93121987830112
 10
42.46697143601816
 20
70.0691630874936
 10
40.60491680029881
 20
68.01503188065092
 10
38.9530220831543
 20
65.78915305233604
 10
38.42980970152741
 20
64.91575172293632
 10
37.52823490040524
 20
63.41074137145065
 10
36.3429836473267
 20
60.90465147345776
 10
35.40856745282923
 20
58.29461303762952
 10
34.73515402437092
 20
55.60548069942957
 10
34.32839400394998
 20
52.86324482594771
 10
34.19167950083708
 20
50.09389147409867
 10
34.32839400394998
 20
47.32453812225028
 10
34.73515402437092
 20
44.58230332631265
 10
35.40856745282923
 20
41.89317206565629
 10
36.3429836473267
 20
39.28313255228511
 10
37.52823490040524
 20
36.77704319306401
 10
38.9530220831543
 20
34.39863097340619
 10
40.60491680029881
 20
32.1727537614067
 10
42.46697143601816
 20
30.11861905254604
 10
44.52110479794868
 20
28.25656529233229
 10
45.01287012844774
 20
27.89161176602428
 10
46.74698362626485
 20
26.60467037314788
 10
49.1253953071496
 20
25.17988278631933
 10
51.63148520514281
 20
23.99463153324048
 10
54.24152364097008
 20
23.06021479997216
 10
56.93065490162644
 20
22.38680191028468
 10
59.67289077510798
 20
21.98004296740862
 10
62.44224412695702
 20
21.8444561143433
 10
65.21159694003298
 20
21.98004296740862
 10
67.95383281351485
 20
22.38680191028468
 10
70.64296407417248
 20
23.06021479997216
 10
73.25300301509807
 20
23.99463153324048
 10
73.68461985974107
 20
24.19876393871771
 10
75.75909240799297
 20
25.17988278631933
 10
78.1375046276495
 20
26.60467037314788
 10
79.87161866423746
 20
27.89161176602428
 10
80.363381839649
 20
28.25656529233229
 10
82.41751681789621
 20
30.11861905254604
 10
84.27957037607036
 20
32.1727537614067
 10
85.93146509321647
 20
34.39863097340619
 10
87.3562533535088
 20
36.77704319306401
 10
88.54150460658766
 20
39.28313255228511
 10
89.47592080108483
 20
41.89317206565629
 10
90.14933315199986
 20
44.58230332631265
 10
90.55609317242016
 20
47.32453812225028
 10
90.69167948671239
 20
50.09389147409867
 10
90.55609317242016
 20
52.86324482594771
 10
90.14933315199986
 20
55.60548069942957
 10
89.47592080108483
 20
58.29461303762952
 10
88.54150460658766
 20
60.90465147345776
 10
87.3562533535088
 20
63.41074137145065
 10
86.45467747484175
 20
64.91575172293632
 10
85.93146509321647
 20
65.78915305233604
 10
84.27957037607036
 20
68.01503188065092
 10
82.41751681789621
 20
70.0691630874936
 10
80.363381839649
 20
71.93121987830112
 10
78.1375046276495
 20
73.58311244035748
  0
LWPOLYLINE
  5
7A
330
70
100
AcDbEntity
  8
Layer 1
 62
     1
420
 16711680
370
     0
100
AcDbPolyline
 90
      519
 70
     1
 43
0.0
 10
130.4256749020559
 20
118.5584496620814
 10
130.4809384182179
 20
118.5084542425451
 10
130.6776737891736
 20
118.3304528488013
 10
130.7596745169589
 20
118.239823276289
 10
130.9056744171511
 20
118.0784539616829
 10
130.9663471737306
 20
117.9964532338976
 10
131.1076740700364
 20
117.8054513526076
 10
131.2716755256076
 20
117.5327462899023
 10
131.2826732972016
 20
117.5144510028508
 10
131.2968448967424
 20
117.4844522252502
 10
131.4276737467668
 20
117.2074518136666
 10
131.5121273247555
 20
116.9724512166027
 10
131.5426754187307
 20
116.8874521369362
 10
131.624676146516
 20
116.5574503245409
 10
131.6391071454568
 20
116.4604502079553
 10
131.6746753807497
 20
116.2214518083831
 10
131.6883663284616
 20
115.9484491993079
 10
131.6916736708042
 20
115.8824549403441
 10
131.6916736708042
 20
115.4364481906604
 10
131.6916736708042
 20
114.4124538027597
 10
131.6916736708042
 20
113.3884517854651
 10
131.6916736708042
 20
112.3644497681699
 10
131.6916736708042
 20
111.3404553802691
 10
131.6916736708042
 20
110.3164533629742
 10
131.6916736708042
 20
109.2924513456793
 10
131.6916736708042
 20
108.2684493283845
 10
131.6916736708042
 20
107.2444549404837
 10
131.6916736708042
 20
106.2204529231888
 10
131.6916736708042
 20
105.1964509058939
 10
131.6916736708042
 20
104.172448888599
 10
131.6916736708042
 20
103.1484545006982
 10
131.6916736708042
 20
102.1244524834034
 10
131.6916736708042
 20
101.1004504661085
 10
131.6916736708042
 20
100.0764560782077
 10
131.6916736708042
 20
99.05245406091285
 10
131.6916736708042
 20
98.02845204361798
 10
131.6916736708042
 20
97.00445002632308
 10
131.6916736708042
 20
95.98045563842232
 10
131.6916736708042
 20
94.95645362112743
 10
131.6916736708042
 20
93.93245160383255
 10
131.6916736708042
 20
92.90845340123471
 10
131.6916736708042
 20
91.88445138394015
 10
131.6916736708042
 20
90.86045318134202
 10
131.6916736708042
 20
89.83645116404712
 10
131.6916736708042
 20
88.8124529614493
 10
131.6916736708042
 20
87.78845475885146
 10
131.6916736708042
 20
86.76445274155659
 10
131.6916736708042
 20
85.74045453895875
 10
131.6916736708042
 20
84.71645252166387
 10
131.6916736708042
 20
83.69245431906604
 10
131.6916736708042
 20
82.66845230177116
 10
131.6916736708042
 20
81.64445409917332
 10
131.6916736708042
 20
80.62045208187845
 10
131.6916736708042
 20
79.59645387928029
 10
131.6916736708042
 20
78.57245186198572
 10
131.6916736708042
 20
77.54845365938821
 10
131.6916736708042
 20
76.52445545679007
 10
131.6916736708042
 20
75.50045343949519
 10
131.6916736708042
 20
74.47645523689735
 10
131.6916736708042
 20
73.45245321960248
 10
131.6916736708042
 20
72.42845501700465
 10
131.6916736708042
 20
71.40445299970976
 10
131.6916736708042
 20
70.38045479711193
 10
131.6916736708042
 20
69.35645277981705
 10
131.6916736708042
 20
68.33245457721922
 10
131.6916736708042
 20
67.30845255992433
 10
131.6916736708042
 20
66.2844543573265
 10
131.6916736708042
 20
65.260456154729
 10
131.6916736708042
 20
64.23645413743379
 10
131.6916736708042
 20
63.21245593483596
 10
131.6916736708042
 20
62.18845391754108
 10
131.6916736708042
 20
61.16445380759489
 10
131.6916736708042
 20
60.14045369764837
 10
131.6916736708042
 20
59.11645549505054
 10
131.6916736708042
 20
58.09245538510435
 10
131.6916736708042
 20
57.06845527515783
 10
131.6916736708042
 20
56.04445516521131
 10
131.6916736708042
 20
55.02045505526512
 10
131.6916736708042
 20
53.99645494531892
 10
131.6916736708042
 20
52.9724548353724
 10
131.6916736708042
 20
51.9484547254262
 10
131.6916736708042
 20
50.9244546154797
 10
131.6916736708042
 20
49.90045450553382
 10
131.6916736708042
 20
48.87645439558698
 10
131.6916736708042
 20
47.85245619298946
 10
131.6916736708042
 20
46.82845608304296
 10
131.6916736708042
 20
45.80445501942257
 10
131.6916736708042
 20
44.78045586314992
 10
131.6916736708042
 20
43.7564557532034
 10
131.6916736708042
 20
42.73245564325753
 10
131.6916736708042
 20
41.70845553331101
 10
131.6916736708042
 20
40.6844554233645
 10
131.6916736708042
 20
39.66045531341862
 10
131.6916736708042
 20
38.63645615714661
 10
131.6916736708042
 20
37.61245604720009
 10
131.6916736708042
 20
36.58845593725358
 10
131.6916736708042
 20
35.56445582730706
 10
131.6916736708042
 20
34.54045619419812
 10
131.6916736708042
 20
33.5164560842516
 10
131.6916736708042
 20
32.49245621272387
 10
131.6916736708042
 20
31.46845622198643
 10
131.6916736708042
 20
30.44445623124963
 10
131.6916736708042
 20
29.42045624051282
 10
131.6916736708042
 20
28.39645624977538
 10
131.6916736708042
 20
27.37245637824765
 10
131.6916736708042
 20
26.34845626830113
 10
131.6916736708042
 20
25.32445663519219
 10
131.6916736708042
 20
24.30045652524567
 10
131.6916736708042
 20
23.27645641529915
 10
131.6916736708042
 20
22.25245630535328
 10
131.6916736708042
 20
21.22845714908062
 10
131.6916736708042
 20
20.20445703913475
 10
131.6916736708042
 20
19.18045692918823
 10
131.6916736708042
 20
18.15645681924171
 10
131.6916736708042
 20
17.13245670929584
 10
131.6916736708042
 20
16.10845659934932
 10
131.6916736708042
 20
15.08445744307731
 10
131.6916736708042
 20
14.06045637945629
 10
131.6916736708042
 20
13.03645626950977
 10
131.6916736708042
 20
12.01245806691226
 10
131.6916736708042
 20
10.98845795696575
 10
131.6916736708042
 20
9.964457847019874
 10
131.6916736708042
 20
8.940457737073357
 10
131.6916736708042
 20
7.91645762712684
 10
131.6916736708042
 20
6.892457517180324
 10
131.6916736708042
 20
5.868457407233807
 10
131.6916736708042
 20
4.844457297287933
 10
131.6916736708042
 20
3.820457187341416
 10
131.6916736708042
 20
2.7964570773949
 10
131.6916736708042
 20
1.772456967449025
 10
131.6916736708042
 20
0.7484587648508737
 10
131.6916736708042
 20
-0.2755413450956427
 10
131.6916736708042
 20
-1.299541455042159
 10
131.6916736708042
 20
-2.32354347233704
 10
131.6916736708042
 20
-3.34754167493455
 10
131.6916736708042
 20
-4.371543692229431
 10
131.6916736708042
 20
-5.395541894826941
 10
131.6916736708042
 20
-6.419540097425093
 10
131.6916736708042
 20
-7.443542114719974
 10
131.6916736708042
 20
-8.467540317318126
 10
131.6916736708042
 20
-9.491542334613006
 10
131.6916736708042
 20
-10.51554053721051
 10
131.6916736708042
 20
-11.5395425545054
 10
131.6916736708042
 20
-12.56354075710291
 10
131.6916736708042
 20
-13.58754277439779
 10
131.6916736708042
 20
-14.61154097699594
 10
131.6916736708042
 20
-15.63554299429082
 10
131.6916736708042
 20
-15.69254219761087
 10
131.6746753807497
 20
-16.03254233097436
 10
131.6575626497831
 20
-16.14754018824089
 10
131.624676146516
 20
-16.36854084713215
 10
131.5523647492375
 20
-16.65954119688897
 10
131.5426754187307
 20
-16.69854265952745
 10
131.4276737467668
 20
-17.0185423362572
 10
131.3554119405496
 20
-17.17154220553577
 10
131.2826732972016
 20
-17.32554152544207
 10
131.2716755256076
 20
-17.34383299779616
 10
131.1076740700364
 20
-17.61654187519889
 10
131.0580982671755
 20
-17.68353939948648
 10
130.9056744171511
 20
-17.88954066957678
 10
130.7596745169589
 20
-18.0509099841829
 10
130.6776737891736
 20
-18.14153955669512
 10
130.6179890391317
 20
-18.19554040813392
 10
130.4256749020559
 20
-18.36954018467204
 10
130.2476735083121
 20
-18.50124641501855
 10
130.152676107678
 20
-18.57153983755727
 10
129.92652560777
 20
-18.70754141678136
 10
129.8616757579212
 20
-18.74654287941984
 10
129.7356763143614
 20
-18.80605215339874
 10
129.5546727540389
 20
-18.89153951428766
 10
129.2346730773092
 20
-19.00654118625221
 10
129.2236753057139
 20
-19.00927250933996
 10
128.9046750796106
 20
-19.08854191403749
 10
128.7116742970665
 20
-19.11726276812609
 10
128.5686727487561
 20
-19.1385411482706
 10
128.22867643009
 20
-19.15553943832509
 10
128.1996732884197
 20
-19.15553943832509
 10
127.687676094469
 20
-19.15553943832509
 10
125.6396758745766
 20
-19.15553943832509
 10
121.5436754347905
 20
-19.15553943832509
 10
105.1596774903462
 20
-19.15553943832509
 10
88.77567763855287
 20
-19.15553943832509
 10
72.39167778675954
 20
-19.15553943832509
 10
56.00767793496654
 20
-19.15553943832509
 10
39.62367808317353
 20
-19.15553943832509
 10
23.23968013872888
 20
-19.15553943832509
 10
6.855678379587183
 20
-19.15553943832509
 10
-1.336314870589564
 20
-19.15553943832509
 10
-2.360316887884445
 20
-19.15553943832509
 10
-3.346316893167928
 20
-19.15553943832509
 10
-3.384318905179326
 20
-19.15363590449749
 10
-3.685321390601065
 20
-19.1385411482706
 10
-3.896319913826767
 20
-19.10714237685295
 10
-4.021319906758857
 20
-19.08854191403749
 10
-4.351314089760061
 20
-19.00654118625221
 10
-4.408320922474207
 20
-18.98605626309345
 10
-4.671321395884548
 20
-18.89153951428766
 10
-4.978320585068776
 20
-18.74654287941984
 10
-5.043170434917578
 20
-18.70754141678136
 10
-5.2693209348256
 20
-18.57153983755727
 10
-5.432315310374988
 20
-18.4509343756267
 10
-5.542315914506756
 20
-18.36954018467204
 10
-5.734630051581903
 20
-18.19554040813392
 10
-5.7943148016251
 20
-18.14153955669512
 10
-5.944316319022429
 20
-17.97575282290518
 10
-6.022319244299388
 20
-17.88954066957678
 10
-6.174739279626372
 20
-17.68353939948648
 10
-6.224315082487255
 20
-17.61654187519889
 10
-6.399318124349822
 20
-17.32554152544207
 10
-6.45631732766987
 20
-17.2048597695705
 10
-6.544314759217644
 20
-17.0185423362572
 10
-6.659320245878919
 20
-16.69854265952745
 10
-6.669009576385739
 20
-16.65954119688897
 10
-6.741320973664204
 20
-16.36854084713215
 10
-6.774203662234596
 20
-16.14754018824089
 10
-6.79131639320058
 20
-16.03254233097436
 10
-6.808314683255066
 20
-15.69254219761087
 10
-6.808314683255066
 20
-15.63554299429082
 10
-6.808314683255066
 20
-14.61154097699594
 10
-6.808314683255066
 20
-13.58754277439779
 10
-6.808314683255066
 20
-12.56354075710291
 10
-6.808314683255066
 20
-11.5395425545054
 10
-6.808314683255066
 20
-10.51554053721051
 10
-6.808314683255066
 20
-9.491542334613006
 10
-6.808314683255066
 20
-8.467540317318126
 10
-6.808314683255066
 20
-7.443542114719974
 10
-6.808314683255066
 20
-6.419540097425093
 10
-6.808314683255066
 20
-5.395541894826941
 10
-6.808314683255066
 20
-4.371543692229431
 10
-6.808314683255066
 20
-3.34754167493455
 10
-6.808314683255066
 20
-2.32354347233704
 10
-6.808314683255066
 20
-1.299541455042159
 10
-6.808314683255066
 20
-0.2755413450956427
 10
-6.808314683255066
 20
0.7484587648508737
 10
-6.808314683255066
 20
1.772456967449025
 10
-6.808314683255066
 20
2.7964570773949
 10
-6.808314683255066
 20
3.820457187341416
 10
-6.808314683255066
 20
4.844457297287933
 10
-6.808314683255066
 20
5.868457407233807
 10
-6.808314683255066
 20
6.892457517180324
 10
-6.808314683255066
 20
7.91645762712684
 10
-6.808314683255066
 20
8.940457737073357
 10
-6.808314683255066
 20
9.964457847019874
 10
-6.808314683255066
 20
10.98845795696575
 10
-6.808314683255066
 20
12.01245806691226
 10
-6.808314683255066
 20
13.03645626950977
 10
-6.808314683255066
 20
14.06045637945629
 10
-6.808314683255066
 20
15.08445744307731
 10
-6.808314683255066
 20
16.10845659934932
 10
-6.808314683255066
 20
17.13245670929584
 10
-6.808314683255066
 20
18.15645681924171
 10
-6.808314683255066
 20
19.18045692918823
 10
-6.808314683255066
 20
20.20445703913475
 10
-6.808314683255066
 20
21.22845714908062
 10
-6.808314683255066
 20
22.25245630535328
 10
-6.808314683255066
 20
23.27645641529915
 10
-6.808314683255066
 20
24.30045652524567
 10
-6.808314683255066
 20
25.32445663519219
 10
-6.808314683255066
 20
26.34845626830113
 10
-6.808314683255066
 20
27.37245637824765
 10
-6.808314683255066
 20
28.39645624977538
 10
-6.808314683255066
 20
29.42045624051282
 10
-6.808314683255066
 20
30.44445623124963
 10
-6.808314683255066
 20
31.46845622198643
 10
-6.808314683255066
 20
32.49245621272387
 10
-6.808314683255066
 20
33.5164560842516
 10
-6.808314683255066
 20
34.54045619419812
 10
-6.808314683255066
 20
35.56445582730706
 10
-6.808314683255066
 20
36.58845593725358
 10
-6.808314683255066
 20
37.61245604720009
 10
-6.808314683255066
 20
38.63645615714661
 10
-6.808314683255066
 20
39.66045531341862
 10
-6.808314683255066
 20
40.6844554233645
 10
-6.808314683255066
 20
41.70845553331101
 10
-6.808314683255066
 20
42.73245564325753
 10
-6.808314683255066
 20
43.7564557532034
 10
-6.808314683255066
 20
44.78045586314992
 10
-6.808314683255066
 20
45.80445501942257
 10
-6.808314683255066
 20
46.82845608304296
 10
-6.808314683255066
 20
47.85245619298946
 10
-6.808314683255066
 20
48.87645439558698
 10
-6.808314683255066
 20
49.90045450553382
 10
-6.808314683255066
 20
50.9244546154797
 10
-6.808314683255066
 20
51.9484547254262
 10
-6.808314683255066
 20
52.9724548353724
 10
-6.808314683255066
 20
53.99645494531892
 10
-6.808314683255066
 20
55.02045505526512
 10
-6.808314683255066
 20
56.04445516521131
 10
-6.808314683255066
 20
57.06845527515783
 10
-6.808314683255066
 20
58.09245538510435
 10
-6.808314683255066
 20
59.11645549505054
 10
-6.808314683255066
 20
60.14045369764837
 10
-6.808314683255066
 20
61.16445380759489
 10
-6.808314683255066
 20
62.18845391754108
 10
-6.808314683255066
 20
63.21245593483596
 10
-6.808314683255066
 20
64.23645413743379
 10
-6.808314683255066
 20
65.260456154729
 10
-6.808314683255066
 20
66.2844543573265
 10
-6.808314683255066
 20
67.30845255992433
 10
-6.808314683255066
 20
68.33245457721922
 10
-6.808314683255066
 20
69.35645277981705
 10
-6.808314683255066
 20
70.38045479711193
 10
-6.808314683255066
 20
71.40445299970976
 10
-6.808314683255066
 20
72.42845501700465
 10
-6.808314683255066
 20
73.45245321960248
 10
-6.808314683255066
 20
74.47645523689735
 10
-6.808314683255066
 20
75.50045343949519
 10
-6.808314683255066
 20
76.52445545679007
 10
-6.808314683255066
 20
77.54845365938821
 10
-6.808314683255066
 20
78.57245186198572
 10
-6.808314683255066
 20
79.59645387928029
 10
-6.808314683255066
 20
80.62045208187845
 10
-6.808314683255066
 20
81.64445409917332
 10
-6.808314683255066
 20
82.66845230177116
 10
-6.808314683255066
 20
83.69245431906604
 10
-6.808314683255066
 20
84.71645252166387
 10
-6.808314683255066
 20
85.74045453895875
 10
-6.808314683255066
 20
86.76445274155659
 10
-6.808314683255066
 20
87.78845475885146
 10
-6.808314683255066
 20
88.8124529614493
 10
-6.808314683255066
 20
89.83645116404712
 10
-6.808314683255066
 20
90.86045318134202
 10
-6.808314683255066
 20
91.88445138394015
 10
-6.808314683255066
 20
92.90845340123471
 10
-6.808314683255066
 20
93.93245160383255
 10
-6.808314683255066
 20
94.95645362112743
 10
-6.808314683255066
 20
95.98045563842232
 10
-6.808314683255066
 20
97.00445002632308
 10
-6.808314683255066
 20
98.02845204361798
 10
-6.808314683255066
 20
99.05245406091285
 10
-6.808314683255066
 20
100.0764560782077
 10
-6.808314683255066
 20
101.1004504661085
 10
-6.808314683255066
 20
102.1244524834034
 10
-6.808314683255066
 20
103.1484545006982
 10
-6.808314683255066
 20
104.172448888599
 10
-6.808314683255066
 20
105.1964509058939
 10
-6.808314683255066
 20
106.2204529231888
 10
-6.808314683255066
 20
107.2444549404837
 10
-6.808314683255066
 20
108.2684493283845
 10
-6.808314683255066
 20
109.2924513456793
 10
-6.808314683255066
 20
110.3164533629742
 10
-6.808314683255066
 20
111.3404553802691
 10
-6.808314683255066
 20
112.3644497681699
 10
-6.808314683255066
 20
113.3884517854651
 10
-6.808314683255066
 20
114.4124538027597
 10
-6.808314683255066
 20
115.4364481906604
 10
-6.808314683255066
 20
115.8824549403441
 10
-6.805011155609827
 20
115.9484491993079
 10
-6.79131639320058
 20
116.2214518083831
 10
-6.755755787301137
 20
116.4604502079553
 10
-6.741320973664204
 20
116.5574503245409
 10
-6.659320245878919
 20
116.8874521369362
 10
-6.628772151903083
 20
116.9724512166027
 10
-6.544314759217644
 20
117.2074518136666
 10
-6.45631732766987
 20
117.3937692469793
 10
-6.41348590919326
 20
117.4844522252502
 10
-6.399318124349822
 20
117.5144510028508
 10
-6.224315082487255
 20
117.8054513526076
 10
-6.082988186181466
 20
117.9964532338976
 10
-6.022319244299388
 20
118.0784539616829
 10
-5.944316319022429
 20
118.1646584856172
 10
-5.7943148016251
 20
118.3304528488013
 10
-5.597583245366135
 20
118.5084542425451
 10
-5.542315914506756
 20
118.5584496620814
 10
-5.432315310374988
 20
118.6398400383387
 10
-5.2693209348256
 20
118.7604531296634
 10
-4.978320585068776
 20
118.9354485421319
 10
-4.920314301727548
 20
118.9628456963445
 10
-4.798350807647201
 20
119.0204476217984
 10
-4.671321395884548
 20
119.0804528063938
 10
-4.408320922474207
 20
119.1749657405029
 10
-4.351314089760061
 20
119.195450663661
 10
-4.021319906758857
 20
119.2774513914462
 10
-3.896319913826767
 20
119.296051854262
 10
-3.685321390601065
 20
119.3274544403767
 10
-3.384318905179326
 20
119.3425453819062
 10
-3.346316893167928
 20
119.3444527304312
 10
-2.872317896531886
 20
119.3444527304312
 10
-2.360316887884445
 20
119.3444527304312
 10
-1.336314870589564
 20
119.3444527304312
 10
-0.3123204826887837
 20
119.3444527304312
 10
0.7116815346060973
 20
119.3444527304312
 10
1.735683551900978
 20
119.3444527304312
 10
2.759677939801759
 20
119.3444527304312
 10
3.78367995709664
 20
119.3444527304312
 10
4.807681974391521
 20
119.3444527304312
 10
5.831683991686402
 20
119.3444527304312
 10
6.855678379587183
 20
119.3444527304312
 10
7.879680396882064
 20
119.3444527304312
 10
8.903682414176945
 20
119.3444527304312
 10
9.927680616774775
 20
119.3444527304312
 10
10.95168263406965
 20
119.3444527304312
 10
11.97568083666749
 20
119.3444527304312
 10
12.99968285396237
 20
119.3444527304312
 10
14.0236810565602
 20
119.3444527304312
 10
15.04767925915803
 20
119.3444527304312
 10
16.07168127645291
 20
119.3444527304312
 10
17.09567947905074
 20
119.3444527304312
 10
18.11968149634562
 20
119.3444527304312
 10
19.14367969894345
 20
119.3444527304312
 10
20.16768171623834
 20
119.3444527304312
 10
21.19167991883617
 20
119.3444527304312
 10
22.21568193613105
 20
119.3444527304312
 10
23.23968013872888
 20
119.3444527304312
 10
24.26368215602376
 20
119.3444527304312
 10
25.28768035862159
 20
119.3444527304312
 10
26.31167856121943
 20
119.3444527304312
 10
27.3356805785143
 20
119.3444527304312
 10
28.35967878111214
 20
119.3444527304312
 10
29.38368079840702
 20
119.3444527304312
 10
30.40767900100485
 20
119.3444527304312
 10
31.43168101829973
 20
119.3444527304312
 10
32.45567922089756
 20
119.3444527304312
 10
33.47968123819244
 20
119.3444527304312
 10
34.50367944079027
 20
119.3444527304312
 10
35.52768145808516
 20
119.3444527304312
 10
36.55167966068299
 20
119.3444527304312
 10
37.57567786328082
 20
119.3444527304312
 10
38.59967988057569
 20
119.3444527304312
 10
39.62367808317353
 20
119.3444527304312
 10
40.6476801004684
 20
119.3444527304312
 10
41.6716802104146
 20
119.3444527304312
 10
42.69568032036112
 20
119.3444527304312
 10
43.71967852295894
 20
119.3444527304312
 10
44.74367863290514
 20
119.3444527304312
 10
45.76767874285198
 20
119.3444527304312
 10
46.79167885279817
 20
119.3444527304312
 10
47.81567896274437
 20
119.3444527304312
 10
48.83967907269057
 20
119.3444527304312
 10
49.86367918263709
 20
119.3444527304312
 10
50.8876792925836
 20
119.3444527304312
 10
51.9116794025298
 20
119.3444527304312
 10
52.93567951247599
 20
119.3444527304312
 10
53.95967962242251
 20
119.3444527304312
 10
54.98367782502034
 20
119.3444527304312
 10
56.00767793496654
 20
119.3444527304312
 10
57.03167899858724
 20
119.3444527304312
 10
58.05567815485957
 20
119.3444527304312
 10
59.07967826480576
 20
119.3444527304312
 10
60.10367837475196
 20
119.3444527304312
 10
61.12767848469847
 20
119.3444527304312
 10
62.15167859464499
 20
119.3444527304312
 10
63.17567870459119
 20
119.3444527304312
 10
64.19967786086321
 20
119.3444527304312
 10
65.22367797080971
 20
119.3444527304312
 10
66.24767808075559
 20
119.3444527304312
 10
67.2716781907021
 20
119.3444527304312
 10
68.2956778238117
 20
119.3444527304312
 10
69.31967793375758
 20
119.3444527304312
 10
70.3436778052853
 20
119.3444527304312
 10
71.36767779602275
 20
119.3444527304312
 10
72.39167778675954
 20
119.3444527304312
 10
73.41567777749763
 20
119.3444527304312
 10
74.43967776823379
 20
119.3444527304312
 10
75.46367763976153
 20
119.3444527304312
 10
76.48767774970804
 20
119.3444527304312
 10
77.51167738281698
 20
119.3444527304312
 10
78.5356774927635
 20
119.3444527304312
 10
79.55967760270937
 20
119.3444527304312
 10
80.58367771265654
 20
119.3444527304312
 10
81.60767686892855
 20
119.3444527304312
 10
82.63167697887507
 20
119.3444527304312
 10
83.65567708882094
 20
119.3444527304312
 10
84.6796771987681
 20
119.3444527304312
 10
85.70367730871332
 20
119.3444527304312
 10
86.72767741865985
 20
119.3444527304312
 10
87.75167657493186
 20
119.3444527304312
 10
88.77567763855287
 20
119.3444527304312
 10
89.79967774849939
 20
119.3444527304312
 10
90.8236759510969
 20
119.3444527304312
 10
91.84767606104406
 20
119.3444527304312
 10
92.8716761709893
 20
119.3444527304312
 10
93.89567628093582
 20
119.3444527304312
 10
94.91967639088233
 20
119.3444527304312
 10
95.94367650082885
 20
119.3444527304312
 10
96.96767661077601
 20
119.3444527304312
 10
97.99167672072124
 20
119.3444527304312
 10
99.01567683066776
 20
119.3444527304312
 10
100.0396769406149
 20
119.3444527304312
 10
101.0636770505608
 20
119.3444527304312
 10
102.0876752531583
 20
119.3444527304312
 10
103.1116753631048
 20
119.3444527304312
 10
104.1356754730513
 20
119.3444527304312
 10
105.1596774903462
 20
119.3444527304312
 10
106.1836756929437
 20
119.3444527304312
 10
107.2076777102386
 20
119.3444527304312
 10
108.2316759128361
 20
119.3444527304312
 10
109.2556741154349
 20
119.3444527304312
 10
110.2796761327291
 20
119.3444527304312
 10
111.3036743353273
 20
119.3444527304312
 10
112.3276763526228
 20
119.3444527304312
 10
113.3516745552197
 20
119.3444527304312
 10
114.3756765725145
 20
119.3444527304312
 10
115.3996747751127
 20
119.3444527304312
 10
116.4236767924076
 20
119.3444527304312
 10
117.4476749950051
 20
119.3444527304312
 10
118.4716770123
 20
119.3444527304312
 10
119.4956752148981
 20
119.3444527304312
 10
120.5196734174956
 20
119.3444527304312
 10
121.5436754347905
 20
119.3444527304312
 10
122.567673637388
 20
119.3444527304312
 10
123.5916756546829
 20
119.3444527304312
 10
124.6156738572817
 20
119.3444527304312
 10
125.6396758745766
 20
119.3444527304312
 10
126.6636740771741
 20
119.3444527304312
 10
127.687676094469
 20
119.3444527304312
 10
128.1996732884197
 20
119.3444527304312
 10
128.22867643009
 20
119.3444527304312
 10
128.5686727487561
 20
119.3274544403767
 10
128.7116742970665
 20
119.3061684308381
 10
128.9046750796106
 20
119.2774513914462
 10
129.2236753057139
 20
119.1981819867487
 10
129.2346730773092
 20
119.195450663661
 10
129.5546727540389
 20
119.0804528063938
 10
129.6817097951963
 20
119.0204476217984
 10
129.7356763143614
 20
118.9949654455049
 10
129.8616757579212
 20
118.9354485421319
 10
130.152676107678
 20
118.7604531296634
 10
130.2476735083121
 20
118.6901558924273
  0
INSERT
  5
7D
330
70
100
AcDbEntity
  8
Layer 3
100
AcDbBlockReference
  2
Block_0
 10
0.0
 20
0.0
 30
0.0
  0
LWPOLYLINE
  5
83
330
70
100
AcDbEntity
  8
Layer 3
 62
     1
420
 16711680
370
     0
100
AcDbPolyline
 90
        3
 70
     1
 43
0.0
 10
62.44167949377441
 20
81.20846460229477
 10
90.05198748687156
 20
33.3860083456248
 10
34.83137150067727
 20
33.3860083456248
  0
CIRCLE
  5
85
330
70
100
AcDbEntity
  8
Layer 5
 62
     1
420
 16711680
370
     0
100
AcDbCircle
 10
62.44167949377441
 20
81.97595663808257
 30
0.0
 40
1.517999999620417
  0
CIRCLE
  5
86
330
70
100
AcDbEntity
  8
Layer 5
 62
     1
420
 16711680
370
     0
100
AcDbCircle
 10
90.01382492754029
 20
34.17567105388267
 30
0.0
 40
1.517999999620417
  0
CIRCLE
  5
87
330
70
100
AcDbEntity
  8
Layer 5
 62
     1
420
 16711680
370
     0
100
AcDbCircle
 10
34.86953404285786
 20
34.17567105388267
 30
0.0
 40
1.517999999620417
  0
LWPOLYLINE
  5
89
330
70
100
AcDbEntity
  8
Layer 4
 62
     1
420
 16711680
370
     0
100
AcDbPolyline
 90
        3
 70
     1
 43
0.0
 10
62.44168529943129
 20
18.07170803052965
 10
90.0519932925281
 20
65.89416428720027
 10
34.83137730633414
 20
65.89416428720027
  0
INSERT
  5
8C
330
70
100
AcDbEntity
  8
Layer 2
100
AcDbBlockReference
  2
Block_1
 10
0.0
 20
0.0
 30
0.0
  0
INSERT
  5
94
330
70
100
AcDbEntity
  8
Layer 2
100
AcDbBlockReference
  2
Block_2
 10
0.0
 20
0.0
 30
0.0
  0
INSERT
  5
9C
330
70
100
AcDbEntity
  8
Layer 2
100
AcDbBlockReference
  2
Block_3
 10
0.0
 20
0.0
 30
0.0
  0
INSERT
  5
A4
330
70
100
AcDbEntity
  8
Layer 2
100
AcDbBlockReference
  2
Block_4
 10
0.0
 20
0.0
 30
0.0
  0
ENDSEC
  0
SECTION
  2
OBJECTS
  0
DICTIONARY
  5
C
330
0
100
AcDbDictionary
281
     1
  3
ACAD_COLOR
350
63
  3
ACAD_DETAILVIEWSTYLE
350
6A
  3
ACAD_GROUP
350
D
  3
ACAD_LAYOUT
350
62
  3
ACAD_MATERIAL
350
10
  3
ACAD_MLEADERSTYLE
350
66
  3
ACAD_MLINESTYLE
350
5F
  3
ACAD_PLOTSETTINGS
350
61
  3
ACAD_PLOTSTYLENAME
350
E
  3
ACAD_SCALELIST
350
42
  3
ACAD_SECTIONVIEWSTYLE
350
68
  3
ACAD_TABLESTYLE
350
64
  3
ACAD_VISUALSTYLE
350
29
  3
ACDB_RECOMPOSE_DATA
350
B3
  3
AcDbVariableDictionary
350
AB
  0
DICTIONARY
  5
63
102
{ACAD_REACTORS
330
C
102
}
330
C
100
AcDbDictionary
281
     1
  0
DICTIONARY
  5
6A
102
{ACAD_REACTORS
330
C
102
}
330
C
100
AcDbDictionary
281
     1
  3
Imperial24
350
6B
  0
DICTIONARY
  5
D
102
{ACAD_REACTORS
330
C
102
}
330
C
100
AcDbDictionary
281
     1
  0
DICTIONARY
  5
62
102
{ACAD_REACTORS
330
C
102
}
330
C
100
AcDbDictionary
281
     1
  3
Layout1
350
6F
  3
Layout2
350
77
  3
Model
350
73
  0
DICTIONARY
  5
10
102
{ACAD_REACTORS
330
C
102
}
330
C
100
AcDbDictionary
281
     1
  3
ByBlock
350
19
  3
ByLayer
350
11
  3
Global
350
21
  0
DICTIONARY
  5
66
102
{ACAD_REACTORS
330
C
102
}
330
C
100
AcDbDictionary
281
     1
  3
Standard
350
67
  0
DICTIONARY
  5
5F
102
{ACAD_REACTORS
330
C
102
}
330
C
100
AcDbDictionary
281
     1
  3
Standard
350
60
  0
DICTIONARY
  5
61
102
{ACAD_REACTORS
330
C
102
}
330
C
100
AcDbDictionary
281
     1
  0
ACDBDICTIONARYWDFLT
  5
E
102
{ACAD_REACTORS
330
C
102
}
330
C
100
AcDbDictionary
281
     1
  3
Normal
350
F
100
AcDbDictionaryWithDefault
340
F
  0
DICTIONARY
  5
42
102
{ACAD_REACTORS
330
C
102
}
330
C
100
AcDbDictionary
281
     1
  3
A0
350
43
  3
A1
350
44
  3
A2
350
45
  3
A3
350
46
  3
A4
350
47
  3
A5
350
48
  3
A6
350
49
  3
A7
350
4A
  3
A8
350
4B
  3
A9
350
4C
  3
B0
350
4D
  3
B1
350
4E
  3
B2
350
4F
  3
B3
350
50
  3
B4
350
51
  3
B5
350
52
  3
B6
350
53
  0
DICTIONARY
  5
68
102
{ACAD_REACTORS
330
C
102
}
330
C
100
AcDbDictionary
281
     1
  3
Imperial24
350
69
  0
DICTIONARY
  5
64
102
{ACAD_REACTORS
330
C
102
}
330
C
100
AcDbDictionary
281
     1
  3
Standard
350
65
  0
DICTIONARY
  5
29
102
{ACAD_REACTORS
330
C
102
}
330
C
100
AcDbDictionary
281
     1
  3
2dWireframe
350
2F
  3
Basic
350
2E
  3
Brighten
350
35
  3
ColorChange
350
39
  3
Conceptual
350
32
  3
Dim
350
34
  3
EdgeColorOff
350
41
  3
Facepattern
350
38
  3
Flat
350
2A
  3
FlatWithEdges
350
2B
  3
Gouraud
350
2C
  3
GouraudWithEdges
350
2D
  3
Hidden
350
31
  3
JitterOff
350
3F
  3
Linepattern
350
37
  3
OverhangOff
350
40
  3
Realistic
350
33
  3
Shaded
350
3E
  3
Shaded with edges
350
3D
  3
Shades of Gray
350
3A
  3
Sketchy
350
3B
  3
Thicken
350
36
  3
Wireframe
350
30
  3
X-Ray
350
3C
  0
XRECORD
  5
B3
102
{ACAD_REACTORS
330
C
102
}
330
C
100
AcDbXrecord
280
     1
 90
        1
330
65
  0
DICTIONARY
  5
AB
102
{ACAD_REACTORS
330
C
102
}
330
C
100
AcDbDictionary
281
     1
  3
CANNOSCALE
350
B0
  3
CMLEADERSTYLE
350
AD
  3
CTABLESTYLE
350
AC
  3
CVIEWDETAILSTYLE
350
AE
  3
CVIEWSECTIONSTYLE
350
AF
  0
ACDBDETAILVIEWSTYLE
  5
6B
102
{ACAD_REACTORS
330
6A
102
}
330
6A
100
AcDbModelDocViewStyle
 70
     0
  3
Imperial24
290
     1
300
Imperial24
 90
        0
100
AcDbDetailViewStyle
 70
     0
 71
     0
 90
        3
 71
     1
340
55
 62
   256
 40
0.24
340
0
 62
   256
 40
0.24
300

 40
0.36
280
     3
 71
     2
340
5D
 90
       25
 62
   256
 71
     3
340
55
 62
   256
 40
0.24
 90
        1
 40
0.75
 90
        1
300
%<\AcVar ViewType \f "%tc1">% %<\AcVar ViewDetailId>%\PSCALE %<\AcVar ViewScale \f "%sn">%
 71
     4
340
5D
 90
       25
 62
   256
340
5D
 90
       25
 62
   256
280
     0
  0
LAYOUT
  5
6F
102
{ACAD_REACTORS
330
62
102
}
330
62
100
AcDbPlotSettings
  1

  2

  4

  6

 40
0.0
 41
0.0
 42
0.0
 43
0.0
 44
0.0
 45
0.0
 46
0.0
 47
0.0
 48
0.0
 49
0.0
140
0.0
141
0.0
142
1.0
143
1.0
 70
   688
 72
     0
 73
     0
 74
     5
  7

 75
    16
147
1.0
 76
     0
 77
     2
 78
   300
148
0.0
149
0.0
100
AcDbLayout
  1
Layout1
 70
     1
 71
     1
 10
0.0
 20
0.0
 11
12.0
 21
9.0
 12
0.0
 22
0.0
 32
0.0
 14
0.0
 24
0.0
 34
0.0
 15
0.0
 25
0.0
 35
0.0
146
0.0
 13
0.0
 23
0.0
 33
0.0
 16
1.0
 26
0.0
 36
0.0
 17
0.0
 27
1.0
 37
0.0
 76
     0
330
6C
  0
LAYOUT
  5
77
102
{ACAD_REACTORS
330
62
102
}
330
62
100
AcDbPlotSettings
  1

  2

  4

  6

 40
0.0
 41
0.0
 42
0.0
 43
0.0
 44
0.0
 45
0.0
 46
0.0
 47
0.0
 48
0.0
 49
0.0
140
0.0
141
0.0
142
1.0
143
1.0
 70
   688
 72
     0
 73
     0
 74
     5
  7

 75
    16
147
1.0
 76
     0
 77
     2
 78
   300
148
0.0
149
0.0
100
AcDbLayout
  1
Layout2
 70
     1
 71
     2
 10
0.0
 20
0.0
 11
12.0
 21
9.0
 12
0.0
 22
0.0
 32
0.0
 14
0.0
 24
0.0
 34
0.0
 15
0.0
 25
0.0
 35
0.0
146
0.0
 13
0.0
 23
0.0
 33
0.0
 16
1.0
 26
0.0
 36
0.0
 17
0.0
 27
1.0
 37
0.0
 76
     0
330
74
  0
LAYOUT
  5
73
102
{ACAD_REACTORS
330
62
102
}
330
62
100
AcDbPlotSettings
  1

  2

  4

  6

 40
0.0
 41
0.0
 42
0.0
 43
0.0
 44
0.0
 45
0.0
 46
0.0
 47
0.0
 48
0.0
 49
0.0
140
0.0
141
0.0
142
1.0
143
1.0
 70
  1712
 72
     0
 73
     0
 74
     0
  7

 75
     0
147
1.0
 76
     0
 77
     2
 78
   300
148
0.0
149
0.0
100
AcDbLayout
  1
Model
 70
     1
 71
     0
 10
0.0
 20
0.0
 11
12.0
 21
9.0
 12
0.0
 22
0.0
 32
0.0
 14
0.0
 24
0.0
 34
0.0
 15
0.0
 25
0.0
 35
0.0
146
0.0
 13
0.0
 23
0.0
 33
0.0
 16
1.0
 26
0.0
 36
0.0
 17
0.0
 27
1.0
 37
0.0
 76
     0
330
70
  0
MATERIAL
  5
19
102
{ACAD_XDICTIONARY
360
1A
102
}
102
{ACAD_REACTORS
330
10
102
}
330
10
100
AcDbMaterial
  1
ByBlock
 72
     0
 43
0.0208333333333333
 43
0.0
 43
0.0
 43
0.0
 43
0.0
 43
0.0208333333333333
 43
0.0
 43
0.0
 43
0.0
 43
0.0
 43
1.0
 43
0.0
 43
0.0
 43
0.0
 43
0.0
 43
1.0
 77
     0
 47
0.0208333333333333
 47
0.0
 47
0.0
 47
0.0
 47
0.0
 47
0.0208333333333333
 47
0.0
 47
0.0
 47
0.0
 47
0.0
 47
1.0
 47
0.0
 47
0.0
 47
0.0
 47
0.0
 47
1.0
171
     0
 49
0.0208333333333333
 49
0.0
 49
0.0
 49
0.0
 49
0.0
 49
0.0208333333333333
 49
0.0
 49
0.0
 49
0.0
 49
0.0
 49
1.0
 49
0.0
 49
0.0
 49
0.0
 49
0.0
 49
1.0
175
     0
142
0.0208333333333333
142
0.0
142
0.0
142
0.0
142
0.0
142
0.0208333333333333
142
0.0
142
0.0
142
0.0
142
0.0
142
1.0
142
0.0
142
0.0
142
0.0
142
0.0
142
1.0
179
     0
144
0.0208333333333333
144
0.0
144
0.0
144
0.0
144
0.0
144
0.0208333333333333
144
0.0
144
0.0
144
0.0
144
0.0
144
1.0
144
0.0
144
0.0
144
0.0
144
0.0
144
1.0
147
0.0208333333333333
147
0.0
147
0.0
147
0.0
147
0.0
147
0.0208333333333333
147
0.0
147
0.0
147
0.0
147
0.0
147
1.0
147
0.0
147
0.0
147
0.0
147
0.0
147
1.0
  0
MATERIAL
  5
11
102
{ACAD_XDICTIONARY
360
12
102
}
102
{ACAD_REACTORS
330
10
102
}
330
10
100
AcDbMaterial
  1
ByLayer
 72
     0
 43
0.0208333333333333
 43
0.0
 43
0.0
 43
0.0
 43
0.0
 43
0.0208333333333333
 43
0.0
 43
0.0
 43
0.0
 43
0.0
 43
1.0
 43
0.0
 43
0.0
 43
0.0
 43
0.0
 43
1.0
 77
     0
 47
0.0208333333333333
 47
0.0
 47
0.0
 47
0.0
 47
0.0
 47
0.0208333333333333
 47
0.0
 47
0.0
 47
0.0
 47
0.0
 47
1.0
 47
0.0
 47
0.0
 47
0.0
 47
0.0
 47
1.0
171
     0
 49
0.0208333333333333
 49
0.0
 49
0.0
 49
0.0
 49
0.0
 49
0.0208333333333333
 49
0.0
 49
0.0
 49
0.0
 49
0.0
 49
1.0
 49
0.0
 49
0.0
 49
0.0
 49
0.0
 49
1.0
175
     0
142
0.0208333333333333
142
0.0
142
0.0
142
0.0
142
0.0
142
0.0208333333333333
142
0.0
142
0.0
142
0.0
142
0.0
142
1.0
142
0.0
142
0.0
142
0.0
142
0.0
142
1.0
179
     0
144
0.0208333333333333
144
0.0
144
0.0
144
0.0
144
0.0
144
0.0208333333333333
144
0.0
144
0.0
144
0.0
144
0.0
144
1.0
144
0.0
144
0.0
144
0.0
144
0.0
144
1.0
147
0.0208333333333333
147
0.0
147
0.0
147
0.0
147
0.0
147
0.0208333333333333
147
0.0
147
0.0
147
0.0
147
0.0
147
1.0
147
0.0
147
0.0
147
0.0
147
0.0
147
1.0
  0
MATERIAL
  5
21
102
{ACAD_XDICTIONARY
360
22
102
}
102
{ACAD_REACTORS
330
10
102
}
330
10
100
AcDbMaterial
  1
Global
 72
     0
 43
0.0208333333333333
 43
0.0
 43
0.0
 43
0.0
 43
0.0
 43
0.0208333333333333
 43
0.0
 43
0.0
 43
0.0
 43
0.0
 43
1.0
 43
0.0
 43
0.0
 43
0.0
 43
0.0
 43
1.0
 77
     0
 47
0.0208333333333333
 47
0.0
 47
0.0
 47
0.0
 47
0.0
 47
0.0208333333333333
 47
0.0
 47
0.0
 47
0.0
 47
0.0
 47
1.0
 47
0.0
 47
0.0
 47
0.0
 47
0.0
 47
1.0
171
     0
 49
0.0208333333333333
 49
0.0
 49
0.0
 49
0.0
 49
0.0
 49
0.0208333333333333
 49
0.0
 49
0.0
 49
0.0
 49
0.0
 49
1.0
 49
0.0
 49
0.0
 49
0.0
 49
0.0
 49
1.0
175
     0
142
0.0208333333333333
142
0.0
142
0.0
142
0.0
142
0.0
142
0.0208333333333333
142
0.0
142
0.0
142
0.0
142
0.0
142
1.0
142
0.0
142
0.0
142
0.0
142
0.0
142
1.0
179
     0
144
0.0208333333333333
144
0.0
144
0.0
144
0.0
144
0.0
144
0.0208333333333333
144
0.0
144
0.0
144
0.0
144
0.0
144
1.0
144
0.0
144
0.0
144
0.0
144
0.0
144
1.0
147
0.0208333333333333
147
0.0
147
0.0
147
0.0
147
0.0
147
0.0208333333333333
147
0.0
147
0.0
147
0.0
147
0.0
147
1.0
147
0.0
147
0.0
147
0.0
147
0.0
147
1.0
  0
MLEADERSTYLE
  5
67
102
{ACAD_REACTORS
330
66
102
}
330
66
100
AcDbMLeaderStyle
179
     2
170
     2
171
     1
172
     0
 90
        2
 40
0.0
 41
0.0
173
     1
 91
-1056964608
340
5B
 92
       -2
290
     1
 42
0.09
291
     1
 43
0.36
  3
Standard
 44
0.18
300

342
55
174
     1
178
     6
175
     1
176
     0
 93
-1056964608
 45
0.18
292
     0
297
     0
 46
0.18
 94
-1056964608
 47
1.0
 49
1.0
140
1.0
293
     1
141
0.0
294
     1
177
     0
142
1.0
295
     1
296
     0
143
0.125
271
     0
272
     9
273
     9
298
     1
  0
MLINESTYLE
  5
60
102
{ACAD_REACTORS
330
5F
102
}
330
5F
100
AcDbMlineStyle
  2
STANDARD
 70
     0
  3

 62
   256
 51
90.0
 52
90.0
 71
     2
 49
0.5
 62
   256
  6
BYLAYER
 49
-0.5
 62
   256
  6
BYLAYER
  0
ACDBPLACEHOLDER
  5
F
102
{ACAD_REACTORS
330
E
102
}
330
E
  0
SCALE
  5
43
102
{ACAD_REACTORS
330
42
102
}
330
42
100
AcDbScale
 70
     0
300
1:1
140
1.0
141
1.0
290
     1
  0
SCALE
  5
44
102
{ACAD_REACTORS
330
42
102
}
330
42
100
AcDbScale
 70
     0
300
1/128" = 1'-0"
140
0.0078125
141
12.0
290
     0
  0
SCALE
  5
45
102
{ACAD_REACTORS
330
42
102
}
330
42
100
AcDbScale
 70
     0
300
1/64" = 1'-0"
140
0.015625
141
12.0
290
     0
  0
SCALE
  5
46
102
{ACAD_REACTORS
330
42
102
}
330
42
100
AcDbScale
 70
     0
300
1/32" = 1'-0"
140
0.03125
141
12.0
290
     0
  0
SCALE
  5
47
102
{ACAD_REACTORS
330
42
102
}
330
42
100
AcDbScale
 70
     0
300
1/16" = 1'-0"
140
0.0625
141
12.0
290
     0
  0
SCALE
  5
48
102
{ACAD_REACTORS
330
42
102
}
330
42
100
AcDbScale
 70
     0
300
3/32" = 1'-0"
140
0.09375
141
12.0
290
     0
  0
SCALE
  5
49
102
{ACAD_REACTORS
330
42
102
}
330
42
100
AcDbScale
 70
     0
300
1/8" = 1'-0"
140
0.125
141
12.0
290
     0
  0
SCALE
  5
4A
102
{ACAD_REACTORS
330
42
102
}
330
42
100
AcDbScale
 70
     0
300
3/16" = 1'-0"
140
0.1875
141
12.0
290
     0
  0
SCALE
  5
4B
102
{ACAD_REACTORS
330
42
102
}
330
42
100
AcDbScale
 70
     0
300
1/4" = 1'-0"
140
0.25
141
12.0
290
     0
  0
SCALE
  5
4C
102
{ACAD_REACTORS
330
42
102
}
330
42
100
AcDbScale
 70
     0
300
3/8" = 1'-0"
140
0.375
141
12.0
290
     0
  0
SCALE
  5
4D
102
{ACAD_REACTORS
330
42
102
}
330
42
100
AcDbScale
 70
     0
300
1/2" = 1'-0"
140
0.5
141
12.0
290
     0
  0
SCALE
  5
4E
102
{ACAD_REACTORS
330
42
102
}
330
42
100
AcDbScale
 70
     0
300
3/4" = 1'-0"
140
0.75
141
12.0
290
     0
  0
SCALE
  5
4F
102
{ACAD_REACTORS
330
42
102
}
330
42
100
AcDbScale
 70
     0
300
1" = 1'-0"
140
1.0
141
12.0
290
     0
  0
SCALE
  5
50
102
{ACAD_REACTORS
330
42
102
}
330
42
100
AcDbScale
 70
     0
300
1-1/2" = 1'-0"
140
1.5
141
12.0
290
     0
  0
SCALE
  5
51
102
{ACAD_REACTORS
330
42
102
}
330
42
100
AcDbScale
 70
     0
300
3" = 1'-0"
140
3.0
141
12.0
290
     0
  0
SCALE
  5
52
102
{ACAD_REACTORS
330
42
102
}
330
42
100
AcDbScale
 70
     0
300
6" = 1'-0"
140
6.0
141
12.0
290
     0
  0
SCALE
  5
53
102
{ACAD_REACTORS
330
42
102
}
330
42
100
AcDbScale
 70
     0
300
1'-0" = 1'-0"
140
12.0
141
12.0
290
     0
  0
ACDBSECTIONVIEWSTYLE
  5
69
102
{ACAD_REACTORS
330
68
102
}
330
68
100
AcDbModelDocViewStyle
 70
     0
  3
Imperial24
290
     1
300
Imperial24
 90
        0
100
AcDbSectionViewStyle
 70
     0
 71
     0
 90
       78
 71
     1
340
55
 62
   256
 40
0.24
340
0
340
0
 62
   256
 40
0.24
300
I, O, Q, S, X, Z
 40
0.48
 90
        3
 40
0.18
 90
        1
 71
     2
340
5D
 90
       25
 62
   256
340
5D
 90
       50
 62
   256
 40
0.24
 40
0.0
 40
0.24
 71
     3
340
55
 62
   256
 40
0.24
 90
        1
 40
0.75
 90
        1
300
%<\AcVar ViewType \f "%tc1">% %<\AcVar ViewSectionStartId>%-%<\AcVar ViewSectionEndId>%\PSCALE %<\AcVar ViewScale \f "%sn">%
 71
     4
 62
   256
 62
   257
300
ANSI31
 40
1.0
 90
        0
290
     0
290
     0
 90
        6
 40
0.0
 40
1.570796326794896
 40
0.2617993877991494
 40
1.308996938995747
 40
-0.2617993877991494
 40
1.832595714594046
  0
TABLESTYLE
  5
65
102
{ACAD_XDICTIONARY
360
B1
102
}
102
{ACAD_REACTORS
330
64
102
}
330
64
100
AcDbTableStyle
280
     0
  3
Standard
 70
     0
 71
     0
 40
0.06
 41
0.06
280
     0
281
     0
  7
Standard
140
0.18
170
     2
 62
     0
 63
     7
283
     0
 90
      512
 91
        0
  1

274
    -2
284
     1
 64
     0
275
    -2
285
     1
 65
     0
276
    -2
286
     1
 66
     0
277
    -2
287
     1
 67
     0
278
    -2
288
     1
 68
     0
279
    -2
289
     1
 69
     0
  7
Standard
140
0.25
170
     5
 62
     0
 63
     7
283
     0
 90
      512
 91
        0
  1

274
    -2
284
     1
 64
     0
275
    -2
285
     1
 65
     0
276
    -2
286
     1
 66
     0
277
    -2
287
     1
 67
     0
278
    -2
288
     1
 68
     0
279
    -2
289
     1
 69
     0
  7
Standard
140
0.18
170
     5
 62
     0
 63
     7
283
     0
 90
      512
 91
        0
  1

274
    -2
284
     1
 64
     0
275
    -2
285
     1
 65
     0
276
    -2
286
     1
 66
     0
277
    -2
287
     1
 67
     0
278
    -2
288
     1
 68
     0
279
    -2
289
     1
 69
     0
  0
VISUALSTYLE
  5
2F
102
{ACAD_REACTORS
330
29
102
}
330
29
100
AcDbVisualStyle
  2
2dWireframe
 70
     4
177
     3
291
     0
 70
    58
 90
        0
176
     1
 90
        2
176
     1
 90
        0
176
     1
 90
        0
176
     1
 40
0.6
176
     1
 40
30.0
176
     1
 62
     7
420
 16777215
176
     1
 90
        1
176
     1
 90
        4
176
     1
 62
     7
176
     1
 62
   257
176
     1
 90
        1
176
     1
 90
        1
176
     1
 40
1.0
176
     1
 90
        0
176
     1
 62
   257
176
     1
 40
1.0
176
     1
 90
        1
176
     1
 90
        6
176
     1
 90
        2
176
     1
 62
     7
176
     1
 90
        5
176
     1
 90
        0
176
     1
 90
        0
176
     1
290
     0
176
     1
 90
        1
176
     1
 40
0.0
176
     1
 90
        0
176
     1
290
     1
176
     1
290
     1
176
     1
290
     0
176
     1
290
     0
176
     1
290
     0
176
     1
290
     0
176
     1
290
     0
176
     1
290
     0
176
     1
290
     0
176
     1
 90
       50
176
     1
 40
0.0
176
     1
 40
1.0
176
     1
 90
        0
176
     1
 62
    18
420
        0
176
     1
 90
       50
176
     1
 90
        3
176
     1
 62
     5
420
      255
176
     1
290
     0
176
     1
 90
       50
176
     1
 90
       50
176
     1
 90
       50
176
     1
290
     0
176
     1
 90
       50
176
     1
 62
   256
176
     0
 40
1.0
176
     0
 90
        2
176
     1
  1
strokes_ogs.tif
176
     1
290
     0
176
     1
 40
1.0
176
     1
 40
1.0
176
     1
  0
VISUALSTYLE
  5
2E
102
{ACAD_REACTORS
330
29
102
}
330
29
100
AcDbVisualStyle
  2
Basic
 70
     7
177
     3
291
     1
 70
    58
 90
        1
176
     1
 90
        0
176
     1
 90
        1
176
     1
 90
        0
176
     1
 40
0.6
176
     1
 40
30.0
176
     1
 62
     7
420
 16777215
176
     1
 90
        0
176
     1
 90
        4
176
     1
 62
     7
176
     1
 62
   257
176
     1
 90
        1
176
     1
 90
        1
176
     1
 40
1.0
176
     1
 90
        8
176
     1
 62
     7
176
     1
 40
1.0
176
     1
 90
        1
176
     1
 90
        6
176
     1
 90
        2
176
     1
 62
     7
176
     1
 90
        5
176
     1
 90
        0
176
     1
 90
        0
176
     1
290
     0
176
     1
 90
        1
176
     1
 40
0.0
176
     1
 90
        0
176
     1
290
     0
176
     1
290
     1
176
     1
290
     1
176
     1
290
     0
176
     1
290
     0
176
     1
290
     0
176
     1
290
     0
176
     1
290
     0
176
     1
290
     0
176
     1
 90
       50
176
     1
 40
0.0
176
     1
 40
1.0
176
     1
 90
        0
176
     1
 62
    18
420
        0
176
     1
 90
       50
176
     1
 90
        3
176
     1
 62
     5
420
      255
176
     1
290
     0
176
     1
 90
       50
176
     1
 90
       50
176
     1
 90
       50
176
     1
290
     0
176
     1
 90
       50
176
     1
 62
   256
176
     0
 40
1.0
176
     0
 90
        2
176
     1
  1
strokes_ogs.tif
176
     1
290
     0
176
     1
 40
1.0
176
     1
 40
1.0
176
     1
  0
VISUALSTYLE
  5
35
102
{ACAD_REACTORS
330
29
102
}
330
29
100
AcDbVisualStyle
  2
Brighten
 70
    12
177
     3
291
     1
 70
    58
 90
        2
176
     1
 90
        2
176
     1
 90
        0
176
     1
 90
        0
176
     1
 40
0.6
176
     1
 40
30.0
176
     1
 62
     7
420
 16777215
176
     1
 90
        1
176
     1
 90
        4
176
     1
 62
     7
176
     1
 62
   257
176
     1
 90
        1
176
     1
 90
        1
176
     1
 40
1.0
176
     1
 90
        8
176
     1
 62
     7
176
     1
 40
1.0
176
     1
 90
        1
176
     1
 90
        6
176
     1
 90
        2
176
     1
 62
     7
176
     1
 90
        5
176
     1
 90
        0
176
     1
 90
        0
176
     1
290
     0
176
     1
 90
        1
176
     1
 40
50.0
176
     1
 90
        0
176
     1
290
     0
176
     1
290
     1
176
     1
290
     1
176
     1
290
     0
176
     1
290
     0
176
     1
290
     0
176
     1
290
     0
176
     1
290
     0
176
     1
290
     0
176
     1
 90
       50
176
     1
 40
0.0
176
     1
 40
1.0
176
     1
 90
        0
176
     1
 62
    18
420
        0
176
     1
 90
       50
176
     1
 90
        3
176
     1
 62
     5
420
      255
176
     1
290
     0
176
     1
 90
       50
176
     1
 90
       50
176
     1
 90
       50
176
     1
290
     0
176
     1
 90
       50
176
     1
 62
   256
176
     0
 40
1.0
176
     0
 90
        2
176
     1
  1
strokes_ogs.tif
176
     1
290
     0
176
     1
 40
1.0
176
     1
 40
1.0
176
     1
  0
VISUALSTYLE
  5
39
102
{ACAD_REACTORS
330
29
102
}
330
29
100
AcDbVisualStyle
  2
ColorChange
 70
    16
177
     3
291
     1
 70
    58
 90
        2
176
     1
 90
        2
176
     1
 90
        3
176
     1
 90
        0
176
     1
 40
0.6
176
     1
 40
30.0
176
     1
 62
     8
420
  8421504
176
     1
 90
        1
176
     1
 90
        4
176
     1
 62
     7
176
     1
 62
   257
176
     1
 90
        1
176
     1
 90
        1
176
     1
 40
1.0
176
     1
 90
        8
176
     1
 62
     8
420
  8421504
176
     1
 40
1.0
176
     1
 90
        1
176
     1
 90
        6
176
     1
 90
        2
176
     1
 62
     7
176
     1
 90
        5
176
     1
 90
        0
176
     1
 90
        0
176
     1
290
     0
176
     1
 90
        1
176
     1
 40
0.0
176
     1
 90
        0
176
     1
290
     0
176
     1
290
     1
176
     1
290
     1
176
     1
290
     0
176
     1
290
     0
176
     1
290
     0
176
     1
290
     0
176
     1
290
     0
176
     1
290
     0
176
     1
 90
       50
176
     1
 40
0.0
176
     1
 40
1.0
176
     1
 90
        0
176
     1
 62
    18
420
        0
176
     1
 90
       50
176
     1
 90
        3
176
     1
 62
     5
420
      255
176
     1
290
     0
176
     1
 90
       50
176
     1
 90
       50
176
     1
 90
       50
176
     1
290
     0
176
     1
 90
       50
176
     1
 62
   256
176
     0
 40
1.0
176
     0
 90
        2
176
     1
  1
strokes_ogs.tif
176
     1
290
     0
176
     1
 40
1.0
176
     1
 40
1.0
176
     1
  0
VISUALSTYLE
  5
32
102
{ACAD_REACTORS
330
29
102
}
330
29
100
AcDbVisualStyle
  2
Conceptual
 70
     9
177
     3
291
     0
 70
    58
 90
        3
176
     1
 90
        2
176
     1
 90
        0
176
     1
 90
        0
176
     1
 40
0.6
176
     1
 40
30.0
176
     1
 62
     7
420
 16777215
176
     1
 90
        2
176
     1
 90
        2
176
     1
 62
     7
176
     1
 62
   257
176
     1
 90
        1
176
     1
 90
        1
176
     1
 40
179.0
176
     1
 90
        8
176
     1
 62
     7
176
     1
 40
1.0
176
     1
 90
        1
176
     1
 90
        6
176
     1
 90
        2
176
     1
 62
     7
176
     1
 90
        3
176
     1
 90
        0
176
     1
 90
        0
176
     1
290
     0
176
     1
 90
        1
176
     1
 40
0.0
176
     1
 90
        0
176
     1
290
     0
176
     1
290
     1
176
     1
290
     1
176
     1
290
     0
176
     1
290
     0
176
     1
290
     0
176
     1
290
     0
176
     1
290
     0
176
     1
290
     0
176
     1
 90
       50
176
     1
 40
0.0
176
     1
 40
1.0
176
     1
 90
        0
176
     1
 62
    18
420
        0
176
     1
 90
       50
176
     1
 90
        3
176
     1
 62
     5
420
      255
176
     1
290
     0
176
     1
 90
       50
176
     1
 90
       50
176
     1
 90
       50
176
     1
290
     0
176
     1
 90
       50
176
     1
 62
   256
176
     0
 40
1.0
176
     0
 90
        2
176
     1
  1
strokes_ogs.tif
176
     1
290
     0
176
     1
 40
1.0
176
     1
 40
1.0
176
     1
  0
VISUALSTYLE
  5
34
102
{ACAD_REACTORS
330
29
102
}
330
29
100
AcDbVisualStyle
  2
Dim
 70
    11
177
     3
291
     1
 70
    58
 90
        2
176
     1
 90
        2
176
     1
 90
        0
176
     1
 90
        0
176
     1
 40
0.6
176
     1
 40
30.0
176
     1
 62
     7
420
 16777215
176
     1
 90
        1
176
     1
 90
        4
176
     1
 62
     7
176
     1
 62
   257
176
     1
 90
        1
176
     1
 90
        1
176
     1
 40
1.0
176
     1
 90
        8
176
     1
 62
     7
176
     1
 40
1.0
176
     1
 90
        1
176
     1
 90
        6
176
     1
 90
        2
176
     1
 62
     7
176
     1
 90
        5
176
     1
 90
        0
176
     1
 90
        0
176
     1
290
     0
176
     1
 90
        1
176
     1
 40
-50.0
176
     1
 90
        0
176
     1
290
     0
176
     1
290
     1
176
     1
290
     1
176
     1
290
     0
176
     1
290
     0
176
     1
290
     0
176
     1
290
     0
176
     1
290
     0
176
     1
290
     0
176
     1
 90
       50
176
     1
 40
0.0
176
     1
 40
1.0
176
     1
 90
        0
176
     1
 62
    18
420
        0
176
     1
 90
       50
176
     1
 90
        3
176
     1
 62
     5
420
      255
176
     1
290
     0
176
     1
 90
       50
176
     1
 90
       50
176
     1
 90
       50
176
     1
290
     0
176
     1
 90
       50
176
     1
 62
   256
176
     0
 40
1.0
176
     0
 90
        2
176
     1
  1
strokes_ogs.tif
176
     1
290
     0
176
     1
 40
1.0
176
     1
 40
1.0
176
     1
  0
VISUALSTYLE
  5
41
102
{ACAD_REACTORS
330
29
102
}
330
29
100
AcDbVisualStyle
  2
EdgeColorOff
 70
    22
177
     3
291
     1
 70
    58
 90
        2
176
     0
 90
        2
176
     0
 90
        0
176
     0
 90
        0
176
     0
 40
0.6
176
     0
 40
30.0
176
     0
 62
     7
420
 16777215
176
     0
 90
        1
176
     0
 90
        4
176
     0
 62
     7
176
     0
 62
   257
176
     0
 90
        1
176
     0
 90
        1
176
     0
 40
1.0
176
     0
 90
        8
176
     2
 62
     7
176
     0
 40
1.0
176
     0
 90
        1
176
     0
 90
        6
176
     0
 90
        2
176
     0
 62
     7
176
     0
 90
        5
176
     0
 90
        0
176
     0
 90
        0
176
     0
290
     0
176
     0
 90
        1
176
     0
 40
0.0
176
     0
 90
        0
176
     0
290
     0
176
     0
290
     1
176
     0
290
     1
176
     0
290
     0
176
     0
290
     0
176
     0
290
     0
176
     0
290
     0
176
     0
290
     0
176
     0
290
     0
176
     0
 90
       50
176
     0
 40
0.0
176
     0
 40
1.0
176
     0
 90
        0
176
     0
 62
    18
420
        0
176
     0
 90
       50
176
     0
 90
        3
176
     0
 62
     5
420
      255
176
     0
290
     0
176
     0
 90
       50
176
     0
 90
       50
176
     0
 90
       50
176
     0
290
     0
176
     0
 90
       50
176
     0
 62
   256
176
     0
 40
1.0
176
     0
 90
        2
176
     0
  1
strokes_ogs.tif
176
     0
290
     0
176
     0
 40
1.0
176
     0
 40
1.0
176
     0
  0
VISUALSTYLE
  5
38
102
{ACAD_REACTORS
330
29
102
}
330
29
100
AcDbVisualStyle
  2
Facepattern
 70
    15
177
     3
291
     1
 70
    58
 90
        2
176
     1
 90
        2
176
     1
 90
        0
176
     1
 90
        0
176
     1
 40
0.6
176
     1
 40
30.0
176
     1
 62
     7
420
 16777215
176
     1
 90
        1
176
     1
 90
        4
176
     1
 62
     7
176
     1
 62
   257
176
     1
 90
        1
176
     1
 90
        1
176
     1
 40
1.0
176
     1
 90
        8
176
     1
 62
     7
176
     1
 40
1.0
176
     1
 90
        1
176
     1
 90
        6
176
     1
 90
        2
176
     1
 62
     7
176
     1
 90
        5
176
     1
 90
        0
176
     1
 90
        0
176
     1
290
     0
176
     1
 90
        1
176
     1
 40
0.0
176
     1
 90
        0
176
     1
290
     0
176
     1
290
     1
176
     1
290
     1
176
     1
290
     0
176
     1
290
     0
176
     1
290
     0
176
     1
290
     0
176
     1
290
     0
176
     1
290
     0
176
     1
 90
       50
176
     1
 40
0.0
176
     1
 40
1.0
176
     1
 90
        0
176
     1
 62
    18
420
        0
176
     1
 90
       50
176
     1
 90
        3
176
     1
 62
     5
420
      255
176
     1
290
     0
176
     1
 90
       50
176
     1
 90
       50
176
     1
 90
       50
176
     1
290
     0
176
     1
 90
       50
176
     1
 62
   256
176
     0
 40
1.0
176
     0
 90
        2
176
     1
  1
strokes_ogs.tif
176
     1
290
     0
176
     1
 40
1.0
176
     1
 40
1.0
176
     1
  0
VISUALSTYLE
  5
2A
102
{ACAD_REACTORS
330
29
102
}
330
29
100
AcDbVisualStyle
  2
Flat
 70
     0
177
     3
291
     1
 70
    58
 90
        2
176
     1
 90
        1
176
     1
 90
        1
176
     1
 90
        2
176
     1
 40
0.6
176
     1
 40
30.0
176
     1
 62
     7
420
 16777215
176
     1
 90
        0
176
     1
 90
        0
176
     1
 62
     7
176
     1
 62
   257
176
     1
 90
        1
176
     1
 90
        1
176
     1
 40
1.0
176
     1
 90
        8
176
     1
 62
     7
176
     1
 40
1.0
176
     1
 90
        1
176
     1
 90
        6
176
     1
 90
        2
176
     1
 62
     7
176
     1
 90
        5
176
     1
 90
        0
176
     1
 90
        0
176
     1
290
     0
176
     1
 90
       13
176
     1
 40
0.0
176
     1
 90
        0
176
     1
290
     0
176
     1
290
     1
176
     1
290
     1
176
     1
290
     0
176
     1
290
     0
176
     1
290
     0
176
     1
290
     0
176
     1
290
     0
176
     1
290
     0
176
     1
 90
       50
176
     1
 40
0.0
176
     1
 40
1.0
176
     1
 90
        0
176
     1
 62
    18
420
        0
176
     1
 90
       50
176
     1
 90
        3
176
     1
 62
     5
420
      255
176
     1
290
     0
176
     1
 90
       50
176
     1
 90
       50
176
     1
 90
       50
176
     1
290
     0
176
     1
 90
       50
176
     1
 62
   256
176
     0
 40
1.0
176
     0
 90
        2
176
     1
  1
strokes_ogs.tif
176
     1
290
     0
176
     1
 40
1.0
176
     1
 40
1.0
176
     1
  0
VISUALSTYLE
  5
2B
102
{ACAD_REACTORS
330
29
102
}
330
29
100
AcDbVisualStyle
  2
FlatWithEdges
 70
     1
177
     3
291
     1
 70
    58
 90
        2
176
     1
 90
        1
176
     1
 90
        1
176
     1
 90
        2
176
     1
 40
0.6
176
     1
 40
30.0
176
     1
 62
     7
420
 16777215
176
     1
 90
        1
176
     1
 90
        0
176
     1
 62
     7
176
     1
 62
   257
176
     1
 90
        1
176
     1
 90
        1
176
     1
 40
1.0
176
     1
 90
        0
176
     1
 62
   257
176
     1
 40
1.0
176
     1
 90
        1
176
     1
 90
        6
176
     1
 90
        2
176
     1
 62
     7
176
     1
 90
        5
176
     1
 90
        0
176
     1
 90
        0
176
     1
290
     0
176
     1
 90
       13
176
     1
 40
0.0
176
     1
 90
        0
176
     1
290
     0
176
     1
290
     1
176
     1
290
     1
176
     1
290
     0
176
     1
290
     0
176
     1
290
     0
176
     1
290
     0
176
     1
290
     0
176
     1
290
     0
176
     1
 90
       50
176
     1
 40
0.0
176
     1
 40
1.0
176
     1
 90
        0
176
     1
 62
    18
420
        0
176
     1
 90
       50
176
     1
 90
        3
176
     1
 62
     5
420
      255
176
     1
290
     0
176
     1
 90
       50
176
     1
 90
       50
176
     1
 90
       50
176
     1
290
     0
176
     1
 90
       50
176
     1
 62
   256
176
     0
 40
1.0
176
     0
 90
        2
176
     1
  1
strokes_ogs.tif
176
     1
290
     0
176
     1
 40
1.0
176
     1
 40
1.0
176
     1
  0
VISUALSTYLE
  5
2C
102
{ACAD_REACTORS
330
29
102
}
330
29
100
AcDbVisualStyle
  2
Gouraud
 70
     2
177
     3
291
     1
 70
    58
 90
        2
176
     1
 90
        2
176
     1
 90
        1
176
     1
 90
        2
176
     1
 40
0.6
176
     1
 40
30.0
176
     1
 62
     7
420
 16777215
176
     1
 90
        0
176
     1
 90
        0
176
     1
 62
     7
176
     1
 62
   257
176
     1
 90
        1
176
     1
 90
        1
176
     1
 40
1.0
176
     1
 90
        0
176
     1
 62
     7
176
     1
 40
1.0
176
     1
 90
        1
176
     1
 90
        6
176
     1
 90
        2
176
     1
 62
     7
176
     1
 90
        5
176
     1
 90
        0
176
     1
 90
        0
176
     1
290
     0
176
     1
 90
       13
176
     1
 40
0.0
176
     1
 90
        0
176
     1
290
     0
176
     1
290
     1
176
     1
290
     1
176
     1
290
     0
176
     1
290
     0
176
     1
290
     0
176
     1
290
     0
176
     1
290
     0
176
     1
290
     0
176
     1
 90
       50
176
     1
 40
0.0
176
     1
 40
1.0
176
     1
 90
        0
176
     1
 62
    18
420
        0
176
     1
 90
       50
176
     1
 90
        3
176
     1
 62
     5
420
      255
176
     1
290
     0
176
     1
 90
       50
176
     1
 90
       50
176
     1
 90
       50
176
     1
290
     0
176
     1
 90
       50
176
     1
 62
   256
176
     0
 40
1.0
176
     0
 90
        2
176
     1
  1
strokes_ogs.tif
176
     1
290
     0
176
     1
 40
1.0
176
     1
 40
1.0
176
     1
  0
VISUALSTYLE
  5
2D
102
{ACAD_REACTORS
330
29
102
}
330
29
100
AcDbVisualStyle
  2
GouraudWithEdges
 70
     3
177
     3
291
     1
 70
    58
 90
        2
176
     1
 90
        2
176
     1
 90
        1
176
     1
 90
        2
176
     1
 40
0.6
176
     1
 40
30.0
176
     1
 62
     7
420
 16777215
176
     1
 90
        1
176
     1
 90
        0
176
     1
 62
     7
176
     1
 62
   257
176
     1
 90
        1
176
     1
 90
        1
176
     1
 40
1.0
176
     1
 90
        0
176
     1
 62
   257
176
     1
 40
1.0
176
     1
 90
        1
176
     1
 90
        6
176
     1
 90
        2
176
     1
 62
     7
176
     1
 90
        5
176
     1
 90
        0
176
     1
 90
        0
176
     1
290
     0
176
     1
 90
       13
176
     1
 40
0.0
176
     1
 90
        0
176
     1
290
     0
176
     1
290
     1
176
     1
290
     1
176
     1
290
     0
176
     1
290
     0
176
     1
290
     0
176
     1
290
     0
176
     1
290
     0
176
     1
290
     0
176
     1
 90
       50
176
     1
 40
0.0
176
     1
 40
1.0
176
     1
 90
        0
176
     1
 62
    18
420
        0
176
     1
 90
       50
176
     1
 90
        3
176
     1
 62
     5
420
      255
176
     1
290
     0
176
     1
 90
       50
176
     1
 90
       50
176
     1
 90
       50
176
     1
290
     0
176
     1
 90
       50
176
     1
 62
   256
176
     0
 40
1.0
176
     0
 90
        2
176
     1
  1
strokes_ogs.tif
176
     1
290
     0
176
     1
 40
1.0
176
     1
 40
1.0
176
     1
  0
VISUALSTYLE
  5
31
102
{ACAD_REACTORS
330
29
102
}
330
29
100
AcDbVisualStyle
  2
Hidden
 70
     6
177
     3
291
     0
 70
    58
 90
        1
176
     1
 90
        2
176
     1
 90
        2
176
     1
 90
        0
176
     1
 40
0.6
176
     1
 40
30.0
176
     1
 62
     7
420
 16777215
176
     1
 90
        2
176
     1
 90
        2
176
     1
 62
     7
176
     1
 62
   257
176
     1
 90
        2
176
     1
 90
        1
176
     1
 40
40.0
176
     1
 90
        0
176
     1
 62
   257
176
     1
 40
1.0
176
     1
 90
        1
176
     1
 90
        6
176
     1
 90
        2
176
     1
 62
     7
176
     1
 90
        3
176
     1
 90
        0
176
     1
 90
        0
176
     1
290
     0
176
     1
 90
        1
176
     1
 40
0.0
176
     1
 90
        0
176
     1
290
     0
176
     1
290
     1
176
     1
290
     1
176
     1
290
     0
176
     1
290
     0
176
     1
290
     0
176
     1
290
     0
176
     1
290
     0
176
     1
290
     0
176
     1
 90
       50
176
     1
 40
0.0
176
     1
 40
1.0
176
     1
 90
        0
176
     1
 62
    18
420
        0
176
     1
 90
       50
176
     1
 90
        3
176
     1
 62
     5
420
      255
176
     1
290
     0
176
     1
 90
       50
176
     1
 90
       50
176
     1
 90
       50
176
     1
290
     0
176
     1
 90
       50
176
     1
 62
   256
176
     0
 40
1.0
176
     0
 90
        2
176
     1
  1
strokes_ogs.tif
176
     1
290
     0
176
     1
 40
1.0
176
     1
 40
1.0
176
     1
  0
VISUALSTYLE
  5
3F
102
{ACAD_REACTORS
330
29
102
}
330
29
100
AcDbVisualStyle
  2
JitterOff
 70
    20
177
     3
291
     1
 70
    58
 90
        2
176
     0
 90
        2
176
     0
 90
        0
176
     0
 90
        0
176
     0
 40
0.6
176
     0
 40
30.0
176
     0
 62
     7
420
 16777215
176
     0
 90
        1
176
     0
 90
        4
176
     0
 62
     7
176
     0
 62
   257
176
     0
 90
        1
176
     0
 90
        1
176
     0
 40
1.0
176
     0
 90
       10
176
     2
 62
     7
176
     0
 40
1.0
176
     0
 90
        1
176
     0
 90
        6
176
     0
 90
        2
176
     0
 62
     7
176
     0
 90
        5
176
     0
 90
        0
176
     0
 90
        0
176
     0
290
     0
176
     0
 90
        1
176
     0
 40
0.0
176
     0
 90
        0
176
     0
290
     0
176
     0
290
     1
176
     0
290
     1
176
     0
290
     0
176
     0
290
     0
176
     0
290
     0
176
     0
290
     0
176
     0
290
     0
176
     0
290
     0
176
     0
 90
       50
176
     0
 40
0.0
176
     0
 40
1.0
176
     0
 90
        0
176
     0
 62
    18
420
        0
176
     0
 90
       50
176
     0
 90
        3
176
     0
 62
     5
420
      255
176
     0
290
     0
176
     0
 90
       50
176
     0
 90
       50
176
     0
 90
       50
176
     0
290
     0
176
     0
 90
       50
176
     0
 62
   256
176
     0
 40
1.0
176
     0
 90
        2
176
     0
  1
strokes_ogs.tif
176
     0
290
     0
176
     0
 40
1.0
176
     0
 40
1.0
176
     0
  0
VISUALSTYLE
  5
37
102
{ACAD_REACTORS
330
29
102
}
330
29
100
AcDbVisualStyle
  2
Linepattern
 70
    14
177
     3
291
     1
 70
    58
 90
        2
176
     1
 90
        2
176
     1
 90
        0
176
     1
 90
        0
176
     1
 40
0.6
176
     1
 40
30.0
176
     1
 62
     7
420
 16777215
176
     1
 90
        1
176
     1
 90
        4
176
     1
 62
     7
176
     1
 62
   257
176
     1
 90
        7
176
     1
 90
        7
176
     1
 40
1.0
176
     1
 90
        8
176
     1
 62
     7
176
     1
 40
1.0
176
     1
 90
        1
176
     1
 90
        6
176
     1
 90
        2
176
     1
 62
     7
176
     1
 90
        5
176
     1
 90
        0
176
     1
 90
        0
176
     1
290
     0
176
     1
 90
        1
176
     1
 40
0.0
176
     1
 90
        0
176
     1
290
     0
176
     1
290
     1
176
     1
290
     1
176
     1
290
     0
176
     1
290
     0
176
     1
290
     0
176
     1
290
     0
176
     1
290
     0
176
     1
290
     0
176
     1
 90
       50
176
     1
 40
0.0
176
     1
 40
1.0
176
     1
 90
        0
176
     1
 62
    18
420
        0
176
     1
 90
       50
176
     1
 90
        3
176
     1
 62
     5
420
      255
176
     1
290
     0
176
     1
 90
       50
176
     1
 90
       50
176
     1
 90
       50
176
     1
290
     0
176
     1
 90
       50
176
     1
 62
   256
176
     0
 40
1.0
176
     0
 90
        2
176
     1
  1
strokes_ogs.tif
176
     1
290
     0
176
     1
 40
1.0
176
     1
 40
1.0
176
     1
  0
VISUALSTYLE
  5
40
102
{ACAD_REACTORS
330
29
102
}
330
29
100
AcDbVisualStyle
  2
OverhangOff
 70
    21
177
     3
291
     1
 70
    58
 90
        2
176
     0
 90
        2
176
     0
 90
        0
176
     0
 90
        0
176
     0
 40
0.6
176
     0
 40
30.0
176
     0
 62
     7
420
 16777215
176
     0
 90
        1
176
     0
 90
        4
176
     0
 62
     7
176
     0
 62
   257
176
     0
 90
        1
176
     0
 90
        1
176
     0
 40
1.0
176
     0
 90
        9
176
     2
 62
     7
176
     0
 40
1.0
176
     0
 90
        1
176
     0
 90
        6
176
     0
 90
        2
176
     0
 62
     7
176
     0
 90
        5
176
     0
 90
        0
176
     0
 90
        0
176
     0
290
     0
176
     0
 90
        1
176
     0
 40
0.0
176
     0
 90
        0
176
     0
290
     0
176
     0
290
     1
176
     0
290
     1
176
     0
290
     0
176
     0
290
     0
176
     0
290
     0
176
     0
290
     0
176
     0
290
     0
176
     0
290
     0
176
     0
 90
       50
176
     0
 40
0.0
176
     0
 40
1.0
176
     0
 90
        0
176
     0
 62
    18
420
        0
176
     0
 90
       50
176
     0
 90
        3
176
     0
 62
     5
420
      255
176
     0
290
     0
176
     0
 90
       50
176
     0
 90
       50
176
     0
 90
       50
176
     0
290
     0
176
     0
 90
       50
176
     0
 62
   256
176
     0
 40
1.0
176
     0
 90
        2
176
     0
  1
strokes_ogs.tif
176
     0
290
     0
176
     0
 40
1.0
176
     0
 40
1.0
176
     0
  0
VISUALSTYLE
  5
33
102
{ACAD_REACTORS
330
29
102
}
330
29
100
AcDbVisualStyle
  2
Realistic
 70
     8
177
     3
291
     0
 70
    58
 90
        2
176
     1
 90
        3
176
     1
 90
        0
176
     1
 90
        2
176
     1
 40
0.6
176
     1
 40
30.0
176
     1
 62
     7
420
 16777215
176
     1
 90
        0
176
     1
 90
        0
176
     1
 62
     7
176
     1
 62
   257
176
     1
 90
        1
176
     1
 90
        1
176
     1
 40
1.0
176
     1
 90
        8
176
     1
 62
   257
176
     1
 40
1.0
176
     1
 90
        1
176
     1
 90
        6
176
     1
 90
        2
176
     1
 62
     7
176
     1
 90
        3
176
     1
 90
        0
176
     1
 90
        0
176
     1
290
     0
176
     1
 90
       13
176
     1
 40
0.0
176
     1
 90
        0
176
     1
290
     0
176
     1
290
     1
176
     1
290
     1
176
     1
290
     0
176
     1
290
     0
176
     1
290
     0
176
     1
290
     0
176
     1
290
     0
176
     1
290
     0
176
     1
 90
       50
176
     1
 40
0.0
176
     1
 40
1.0
176
     1
 90
        0
176
     1
 62
    18
420
        0
176
     1
 90
       50
176
     1
 90
        3
176
     1
 62
     5
420
      255
176
     1
290
     0
176
     1
 90
       50
176
     1
 90
       50
176
     1
 90
       50
176
     1
290
     0
176
     1
 90
       50
176
     1
 62
   256
176
     0
 40
1.0
176
     0
 90
        2
176
     1
  1
strokes_ogs.tif
176
     1
290
     0
176
     1
 40
1.0
176
     1
 40
1.0
176
     1
  0
VISUALSTYLE
  5
3E
102
{ACAD_REACTORS
330
29
102
}
330
29
100
AcDbVisualStyle
  2
Shaded
 70
    27
177
     3
291
     0
 70
    58
 90
        2
176
     1
 90
        2
176
     1
 90
        1
176
     1
 90
        2
176
     1
 40
0.6
176
     1
 40
30.0
176
     1
 62
     7
420
 16777215
176
     1
 90
        0
176
     1
 90
        4
176
     1
 62
     7
176
     1
 62
   257
176
     1
 90
        1
176
     1
 90
        1
176
     1
 40
1.0
176
     1
 90
        8
176
     1
 62
   257
176
     1
 40
1.0
176
     1
 90
        1
176
     1
 90
        6
176
     1
 90
        2
176
     1
 62
     8
420
  7895160
176
     1
 90
        3
176
     1
 90
        0
176
     1
 90
        0
176
     1
290
     0
176
     1
 90
        5
176
     1
 40
0.0
176
     1
 90
        0
176
     1
290
     0
176
     1
290
     1
176
     1
290
     1
176
     1
290
     0
176
     1
290
     0
176
     1
290
     0
176
     1
290
     0
176
     1
290
     0
176
     1
290
     0
176
     1
 90
       50
176
     1
 40
0.0
176
     1
 40
1.0
176
     1
 90
        0
176
     1
 62
    18
420
        0
176
     1
 90
       50
176
     1
 90
        3
176
     1
 62
     5
420
      255
176
     1
290
     0
176
     1
 90
       50
176
     1
 90
       50
176
     1
 90
       50
176
     1
290
     0
176
     1
 90
       50
176
     1
 62
   256
176
     0
 40
1.0
176
     0
 90
        2
176
     1
  1
strokes_ogs.tif
176
     1
290
     0
176
     1
 40
1.0
176
     1
 40
1.0
176
     1
  0
VISUALSTYLE
  5
3D
102
{ACAD_REACTORS
330
29
102
}
330
29
100
AcDbVisualStyle
  2
Shaded with edges
 70
    26
177
     3
291
     0
 70
    58
 90
        2
176
     1
 90
        2
176
     1
 90
        1
176
     1
 90
        2
176
     1
 40
0.6
176
     1
 40
30.0
176
     1
 62
     7
420
 16777215
176
     1
 90
        1
176
     1
 90
        2
176
     1
 62
     7
176
     1
 62
   257
176
     1
 90
        2
176
     1
 90
        1
176
     1
 40
1.0
176
     1
 90
        8
176
     1
 62
   257
176
     1
 40
1.0
176
     1
 90
        1
176
     1
 90
        6
176
     1
 90
        2
176
     1
 62
     7
176
     1
 90
        3
176
     1
 90
        0
176
     1
 90
        0
176
     1
290
     0
176
     1
 90
        5
176
     1
 40
0.0
176
     1
 90
        0
176
     1
290
     0
176
     1
290
     1
176
     1
290
     1
176
     1
290
     0
176
     1
290
     0
176
     1
290
     0
176
     1
290
     0
176
     1
290
     0
176
     1
290
     0
176
     1
 90
       50
176
     1
 40
0.0
176
     1
 40
1.0
176
     1
 90
        0
176
     1
 62
    18
420
        0
176
     1
 90
       50
176
     1
 90
        3
176
     1
 62
     5
420
      255
176
     1
290
     0
176
     1
 90
       50
176
     1
 90
       50
176
     1
 90
       50
176
     1
290
     0
176
     1
 90
       50
176
     1
 62
   256
176
     0
 40
1.0
176
     0
 90
        2
176
     1
  1
strokes_ogs.tif
176
     1
290
     0
176
     1
 40
1.0
176
     1
 40
1.0
176
     1
  0
VISUALSTYLE
  5
3A
102
{ACAD_REACTORS
330
29
102
}
330
29
100
AcDbVisualStyle
  2
Shades of Gray
 70
    23
177
     3
291
     0
 70
    58
 90
        2
176
     1
 90
        2
176
     1
 90
        3
176
     1
 90
        0
176
     1
 40
0.6
176
     1
 40
30.0
176
     1
 62
     7
420
 16777215
176
     1
 90
        2
176
     1
 90
        2
176
     1
 62
     7
176
     1
 62
     7
176
     1
 90
        1
176
     1
 90
        1
176
     1
 40
40.0
176
     1
 90
        8
176
     1
 62
     7
176
     1
 40
1.0
176
     1
 90
        1
176
     1
 90
        6
176
     1
 90
        2
176
     1
 62
     7
176
     1
 90
        3
176
     1
 90
        0
176
     1
 90
        0
176
     1
290
     0
176
     1
 90
        1
176
     1
 40
0.0
176
     1
 90
        0
176
     1
290
     0
176
     1
290
     1
176
     1
290
     1
176
     1
290
     0
176
     1
290
     0
176
     1
290
     0
176
     1
290
     0
176
     1
290
     0
176
     1
290
     0
176
     1
 90
       50
176
     1
 40
0.0
176
     1
 40
1.0
176
     1
 90
        0
176
     1
 62
    18
420
        0
176
     1
 90
       50
176
     1
 90
        3
176
     1
 62
     5
420
      255
176
     1
290
     0
176
     1
 90
       50
176
     1
 90
       50
176
     1
 90
       50
176
     1
290
     0
176
     1
 90
       50
176
     1
 62
   256
176
     0
 40
1.0
176
     0
 90
        2
176
     1
  1
strokes_ogs.tif
176
     1
290
     0
176
     1
 40
1.0
176
     1
 40
1.0
176
     1
  0
VISUALSTYLE
  5
3B
102
{ACAD_REACTORS
330
29
102
}
330
29
100
AcDbVisualStyle
  2
Sketchy
 70
    24
177
     3
291
     0
 70
    58
 90
        1
176
     1
 90
        2
176
     1
 90
        2
176
     1
 90
        0
176
     1
 40
0.6
176
     1
 40
30.0
176
     1
 62
     7
420
 16777215
176
     1
 90
        2
176
     1
 90
        2
176
     1
 62
     7
176
     1
 62
     7
176
     1
 90
        1
176
     1
 90
        1
176
     1
 40
40.0
176
     1
 90
       11
176
     1
 62
     7
176
     1
 40
1.0
176
     1
 90
        1
176
     1
 90
        6
176
     1
 90
        2
176
     1
 62
     7
176
     1
 90
        6
176
     1
 90
        0
176
     1
 90
        0
176
     1
290
     0
176
     1
 90
        1
176
     1
 40
0.0
176
     1
 90
        0
176
     1
290
     0
176
     1
290
     1
176
     1
290
     1
176
     1
290
     0
176
     1
290
     0
176
     1
290
     0
176
     1
290
     0
176
     1
290
     0
176
     1
290
     0
176
     1
 90
       50
176
     1
 40
0.0
176
     1
 40
1.0
176
     1
 90
        0
176
     1
 62
    18
420
        0
176
     1
 90
       50
176
     1
 90
        3
176
     1
 62
     5
420
      255
176
     1
290
     0
176
     1
 90
       50
176
     1
 90
       50
176
     1
 90
       50
176
     1
290
     0
176
     1
 90
       50
176
     1
 62
   256
176
     0
 40
1.0
176
     0
 90
        2
176
     1
  1
strokes_ogs.tif
176
     1
290
     0
176
     1
 40
1.0
176
     1
 40
1.0
176
     1
  0
VISUALSTYLE
  5
36
102
{ACAD_REACTORS
330
29
102
}
330
29
100
AcDbVisualStyle
  2
Thicken
 70
    13
177
     3
291
     1
 70
    58
 90
        2
176
     1
 90
        2
176
     1
 90
        0
176
     1
 90
        0
176
     1
 40
0.6
176
     1
 40
30.0
176
     1
 62
     7
420
 16777215
176
     1
 90
        1
176
     1
 90
        4
176
     1
 62
     7
176
     1
 62
   257
176
     1
 90
        1
176
     1
 90
        1
176
     1
 40
1.0
176
     1
 90
       12
176
     1
 62
     7
176
     1
 40
1.0
176
     1
 90
        1
176
     1
 90
        6
176
     1
 90
        2
176
     1
 62
     7
176
     1
 90
        5
176
     1
 90
        0
176
     1
 90
        0
176
     1
290
     0
176
     1
 90
        1
176
     1
 40
0.0
176
     1
 90
        0
176
     1
290
     0
176
     1
290
     1
176
     1
290
     1
176
     1
290
     0
176
     1
290
     0
176
     1
290
     0
176
     1
290
     0
176
     1
290
     0
176
     1
290
     0
176
     1
 90
       50
176
     1
 40
0.0
176
     1
 40
1.0
176
     1
 90
        0
176
     1
 62
    18
420
        0
176
     1
 90
       50
176
     1
 90
        3
176
     1
 62
     5
420
      255
176
     1
290
     0
176
     1
 90
       50
176
     1
 90
       50
176
     1
 90
       50
176
     1
290
     0
176
     1
 90
       50
176
     1
 62
   256
176
     0
 40
1.0
176
     0
 90
        2
176
     1
  1
strokes_ogs.tif
176
     1
290
     0
176
     1
 40
1.0
176
     1
 40
1.0
176
     1
  0
VISUALSTYLE
  5
30
102
{ACAD_REACTORS
330
29
102
}
330
29
100
AcDbVisualStyle
  2
Wireframe
 70
     5
177
     3
291
     0
 70
    58
 90
        0
176
     1
 90
        2
176
     1
 90
        0
176
     1
 90
        0
176
     1
 40
0.6
176
     1
 40
30.0
176
     1
 62
     7
420
 16777215
176
     1
 90
        1
176
     1
 90
        4
176
     1
 62
     7
176
     1
 62
   257
176
     1
 90
        1
176
     1
 90
        1
176
     1
 40
1.0
176
     1
 90
        0
176
     1
 62
   257
176
     1
 40
1.0
176
     1
 90
        1
176
     1
 90
        6
176
     1
 90
        2
176
     1
 62
     7
176
     1
 90
        3
176
     1
 90
        0
176
     1
 90
        0
176
     1
290
     0
176
     1
 90
        1
176
     1
 40
0.0
176
     1
 90
        0
176
     1
290
     0
176
     1
290
     1
176
     1
290
     1
176
     1
290
     0
176
     1
290
     0
176
     1
290
     0
176
     1
290
     0
176
     1
290
     0
176
     1
290
     0
176
     1
 90
       50
176
     1
 40
0.0
176
     1
 40
1.0
176
     1
 90
        0
176
     1
 62
    18
420
        0
176
     1
 90
       50
176
     1
 90
        3
176
     1
 62
     5
420
      255
176
     1
290
     0
176
     1
 90
       50
176
     1
 90
       50
176
     1
 90
       50
176
     1
290
     0
176
     1
 90
       50
176
     1
 62
   256
176
     0
 40
1.0
176
     0
 90
        2
176
     1
  1
strokes_ogs.tif
176
     1
290
     0
176
     1
 40
1.0
176
     1
 40
1.0
176
     1
  0
VISUALSTYLE
  5
3C
102
{ACAD_REACTORS
330
29
102
}
330
29
100
AcDbVisualStyle
  2
X-Ray
 70
    25
177
     3
291
     0
 70
    58
 90
        2
176
     1
 90
        2
176
     1
 90
        1
176
     1
 90
        1
176
     1
 40
0.5
176
     1
 40
30.0
176
     1
 62
     7
420
 16777215
176
     1
 90
        1
176
     1
 90
        0
176
     1
 62
     7
176
     1
 62
   257
176
     1
 90
        1
176
     1
 90
        1
176
     1
 40
1.0
176
     1
 90
        8
176
     1
 62
     7
176
     1
 40
1.0
176
     1
 90
        1
176
     1
 90
        6
176
     1
 90
        2
176
     1
 62
     7
176
     1
 90
        3
176
     1
 90
        0
176
     1
 90
        0
176
     1
290
     0
176
     1
 90
       13
176
     1
 40
0.0
176
     1
 90
        0
176
     1
290
     0
176
     1
290
     1
176
     1
290
     1
176
     1
290
     0
176
     1
290
     0
176
     1
290
     0
176
     1
290
     0
176
     1
290
     0
176
     1
290
     0
176
     1
 90
       50
176
     1
 40
0.0
176
     1
 40
1.0
176
     1
 90
        0
176
     1
 62
    18
420
        0
176
     1
 90
       50
176
     1
 90
        3
176
     1
 62
     5
420
      255
176
     1
290
     0
176
     1
 90
       50
176
     1
 90
       50
176
     1
 90
       50
176
     1
290
     0
176
     1
 90
       50
176
     1
 62
   256
176
     0
 40
1.0
176
     0
 90
        2
176
     1
  1
strokes_ogs.tif
176
     1
290
     0
176
     1
 40
1.0
176
     1
 40
1.0
176
     1
  0
DICTIONARYVAR
  5
B0
102
{ACAD_REACTORS
330
AB
102
}
330
AB
100
DictionaryVariables
280
     0
  1
1:1
  0
DICTIONARYVAR
  5
AD
102
{ACAD_REACTORS
330
AB
102
}
330
AB
100
DictionaryVariables
280
     0
  1
STANDARD
  0
DICTIONARYVAR
  5
AC
102
{ACAD_REACTORS
330
AB
102
}
330
AB
100
DictionaryVariables
280
     0
  1
STANDARD
  0
DICTIONARYVAR
  5
AE
102
{ACAD_REACTORS
330
AB
102
}
330
AB
100
DictionaryVariables
280
     0
  1
Imperial24
  0
DICTIONARYVAR
  5
AF
102
{ACAD_REACTORS
330
AB
102
}
330
AB
100
DictionaryVariables
280
     0
  1
Imperial24
  0
DICTIONARY
  5
1A
330
19
100
AcDbDictionary
280
     1
281
     1
  3
BUMPTILE
360
1C
  3
DIFFUSETILE
360
1B
  3
OPACITYTILE
360
1F
  3
REFLECTIONTILE
360
1E
  3
REFRACTIONTILE
360
20
  3
SPECULARTILE
360
1D
  0
DICTIONARY
  5
12
330
11
100
AcDbDictionary
280
     1
281
     1
  3
BUMPTILE
360
14
  3
DIFFUSETILE
360
13
  3
OPACITYTILE
360
17
  3
REFLECTIONTILE
360
16
  3
REFRACTIONTILE
360
18
  3
SPECULARTILE
360
15
  0
DICTIONARY
  5
22
330
21
100
AcDbDictionary
280
     1
281
     1
  3
BUMPTILE
360
24
  3
DIFFUSETILE
360
23
  3
OPACITYTILE
360
27
  3
REFLECTIONTILE
360
26
  3
REFRACTIONTILE
360
28
  3
SPECULARTILE
360
25
  0
DICTIONARY
  5
B1
330
65
100
AcDbDictionary
280
     1
281
     1
  3
ACAD_ROUNDTRIP_2008_TABLESTYLE_CELLSTYLEMAP
360
B2
  0
XRECORD
  5
1C
102
{ACAD_REACTORS
330
1A
102
}
330
1A
100
AcDbXrecord
280
     1
270
     1
271
     1
  0
XRECORD
  5
1B
102
{ACAD_REACTORS
330
1A
102
}
330
1A
100
AcDbXrecord
280
     1
270
     1
271
     1
  0
XRECORD
  5
1F
102
{ACAD_REACTORS
330
1A
102
}
330
1A
100
AcDbXrecord
280
     1
270
     1
271
     1
  0
XRECORD
  5
1E
102
{ACAD_REACTORS
330
1A
102
}
330
1A
100
AcDbXrecord
280
     1
270
     1
271
     1
  0
XRECORD
  5
20
102
{ACAD_REACTORS
330
1A
102
}
330
1A
100
AcDbXrecord
280
     1
270
     1
271
     1
  0
XRECORD
  5
1D
102
{ACAD_REACTORS
330
1A
102
}
330
1A
100
AcDbXrecord
280
     1
270
     1
271
     1
  0
XRECORD
  5
14
102
{ACAD_REACTORS
330
12
102
}
330
12
100
AcDbXrecord
280
     1
270
     1
271
     1
  0
XRECORD
  5
13
102
{ACAD_REACTORS
330
12
102
}
330
12
100
AcDbXrecord
280
     1
270
     1
271
     1
  0
XRECORD
  5
17
102
{ACAD_REACTORS
330
12
102
}
330
12
100
AcDbXrecord
280
     1
270
     1
271
     1
  0
XRECORD
  5
16
102
{ACAD_REACTORS
330
12
102
}
330
12
100
AcDbXrecord
280
     1
270
     1
271
     1
  0
XRECORD
  5
18
102
{ACAD_REACTORS
330
12
102
}
330
12
100
AcDbXrecord
280
     1
270
     1
271
     1
  0
XRECORD
  5
15
102
{ACAD_REACTORS
330
12
102
}
330
12
100
AcDbXrecord
280
     1
270
     1
271
     1
  0
XRECORD
  5
24
102
{ACAD_REACTORS
330
22
102
}
330
22
100
AcDbXrecord
280
     1
270
     1
271
     1
  0
XRECORD
  5
23
102
{ACAD_REACTORS
330
22
102
}
330
22
100
AcDbXrecord
280
     1
270
     1
271
     1
  0
XRECORD
  5
27
102
{ACAD_REACTORS
330
22
102
}
330
22
100
AcDbXrecord
280
     1
270
     1
271
     1
  0
XRECORD
  5
26
102
{ACAD_REACTORS
330
22
102
}
330
22
100
AcDbXrecord
280
     1
270
     1
271
     1
  0
XRECORD
  5
28
102
{ACAD_REACTORS
330
22
102
}
330
22
100
AcDbXrecord
280
     1
270
     1
271
     1
  0
XRECORD
  5
25
102
{ACAD_REACTORS
330
22
102
}
330
22
100
AcDbXrecord
280
     1
270
     1
271
     1
  0
CELLSTYLEMAP
  5
B2
102
{ACAD_REACTORS
330
B1
102
}
330
B1
100
AcDbCellStyleMap
 90
        3
300
CELLSTYLE
  1
TABLEFORMAT_BEGIN
 90
        5
170
     1
 91
        0
 92
    32768
 62
   257
 93
        1
300
CONTENTFORMAT
  1
CONTENTFORMAT_BEGIN
 90
        0
 91
        0
 92
      512
 93
        0
300

 40
0.0
140
1.0
 94
        5
 62
     0
340
55
144
0.25
309
CONTENTFORMAT_END
171
     0
 94
        0
309
TABLEFORMAT_END
  1
CELLSTYLE_BEGIN
 90
        1
 91
        1
300
_TITLE
309
CELLSTYLE_END
300
CELLSTYLE
  1
TABLEFORMAT_BEGIN
 90
        5
170
     1
 91
        0
 92
        0
 62
   257
 93
        1
300
CONTENTFORMAT
  1
CONTENTFORMAT_BEGIN
 90
        0
 91
        0
 92
      512
 93
        0
300

 40
0.0
140
1.0
 94
        5
 62
     0
340
55
144
0.18
309
CONTENTFORMAT_END
171
     0
 94
        0
309
TABLEFORMAT_END
  1
CELLSTYLE_BEGIN
 90
        2
 91
        1
300
_HEADER
309
CELLSTYLE_END
300
CELLSTYLE
  1
TABLEFORMAT_BEGIN
 90
        5
170
     1
 91
        0
 92
        0
 62
   257
 93
        1
300
CONTENTFORMAT
  1
CONTENTFORMAT_BEGIN
 90
        0
 91
        0
 92
      512
 93
        0
300

 40
0.0
140
1.0
 94
        2
 62
     0
340
55
144
0.18
309
CONTENTFORMAT_END
171
     0
 94
        0
309
TABLEFORMAT_END
  1
CELLSTYLE_BEGIN
 90
        3
 91
        2
300
_DATA
309
CELLSTYLE_END
  0
ENDSEC
  0
EOF
